<svg width="120" height="32" viewBox="0 0 120 32" fill="none" xmlns="http://www.w3.org/2000/svg">
<path d="M20.378 23.4608C21.5663 22.162 23.4386 21.9344 24.56 22.9521L28.5949 26.6129C29.7264 27.6398 29.6593 29.5402 28.4461 30.8375L28.4158 30.8694C27.2786 32.1417 25.4592 32.3759 24.3719 31.3896L20.2567 27.6551C19.1354 26.6374 19.1897 24.7595 20.378 23.4608Z" fill="#30A10E"/>
<path d="M15.4802 4.10845e-05C24.052 -0.0194385 31.0117 6.8905 31.0317 15.4272C31.0358 17.1796 30.7443 18.8716 30.2037 20.4524C30.1998 20.542 30.1858 20.6288 30.1583 20.7116C29.8405 21.6645 28.0342 21.7466 26.1206 21.1137C24.2075 20.4809 22.9138 19.1957 23.231 18.2429C23.2483 18.1913 23.2703 18.1414 23.2961 18.0938C23.5772 17.2667 23.7323 16.377 23.7302 15.444C23.7195 10.9175 20.0298 7.26157 15.4963 7.27198C10.9629 7.28262 7.29129 10.9558 7.30162 15.4822C7.3118 19.7811 11.171 23.6439 15.5346 23.6339V23.6401C15.5748 23.6354 15.6151 23.6324 15.6558 23.633C16.6639 23.6473 17.4576 25.2934 17.4286 27.3098C17.3997 29.3258 16.5594 30.949 15.5515 30.9351C15.4757 30.934 15.401 30.9222 15.3278 30.9031C7.01172 30.7971 0.0190857 23.7221 4.05975e-05 15.4982C-0.0193479 6.96151 6.9084 0.0197311 15.4802 4.10845e-05Z" fill="#30A10E"/>
<path d="M48.3731 9.14286C50.3893 9.14286 52.0239 10.7802 52.0239 12.8V19.5741C52.0239 19.6873 52.0179 19.7992 52.0078 19.9098H52.0239V21.9464C52.0237 26.9958 47.9375 31.0893 42.8969 31.0893C38.0136 31.0893 34.0258 27.2478 33.7815 22.417L33.7699 21.9464V19.9098H33.7859C33.7759 19.7992 33.7699 19.6873 33.7699 19.5741V12.8C33.7699 10.7802 35.4044 9.14286 37.4207 9.14286C39.437 9.14286 41.0715 10.7802 41.0715 12.8V19.5741C41.0715 19.6873 41.0655 19.7992 41.0554 19.9098H41.0715V21.9464L41.0813 22.1339C41.1749 23.0558 41.9519 23.775 42.8969 23.775C43.9049 23.775 44.7221 22.9562 44.7223 21.9464V19.9098H44.7383C44.7283 19.7992 44.7223 19.6873 44.7223 19.5741V12.8C44.7223 10.7802 46.3568 9.14286 48.3731 9.14286Z" fill="#30A10E"/>
<path d="M58.4128 13.7143C60.429 13.7143 62.0636 15.3516 62.0636 17.3714V27.4286C62.0636 29.4484 60.429 31.0857 58.4128 31.0857C56.3965 31.0857 54.762 29.4484 54.762 27.4286V17.3714C54.762 15.3516 56.3965 13.7143 58.4128 13.7143Z" fill="#30A10E"/>
<path d="M58.4128 5.48571C60.429 5.48571 62.0636 7.12307 62.0636 9.14286C62.0636 11.1626 60.429 12.8 58.4128 12.8C56.3965 12.8 54.762 11.1626 54.762 9.14286C54.762 7.12307 56.3965 5.48571 58.4128 5.48571Z" fill="#30A10E"/>
<path d="M81.7887 9.14286C83.5186 9.14286 84.9212 10.5464 84.9212 12.2777C84.9211 13.1447 84.5689 13.929 84.0004 14.4964C83.9619 14.5459 83.922 14.5956 83.88 14.6437L75.0071 24.8161H82.6612C84.3912 24.8161 85.7937 26.2197 85.7937 27.9509C85.7937 29.6821 84.3912 31.0857 82.6612 31.0857H67.9793C66.2573 31.0857 64.8596 29.6952 64.8468 27.975C64.6935 27.1194 64.929 26.2018 65.5801 25.4554L74.3406 15.4125H69.7253C67.9954 15.4125 66.5929 14.0088 66.5928 12.2777C66.5928 10.5464 67.9953 9.14286 69.7253 9.14286H81.7887Z" fill="#30A10E"/>
<path d="M88.5318 9.14286C88.5318 7.12307 90.1664 5.48571 92.1826 5.48571C94.1989 5.48571 95.8334 7.12307 95.8334 9.14286V27.4286C95.8334 29.4484 94.1989 31.0857 92.1826 31.0857C90.1664 31.0857 88.5318 29.4484 88.5318 27.4286V9.14286Z" fill="#30A10E"/>
<path d="M117.906 6.35899C119.793 7.17636 120.561 9.45634 119.557 11.2589L109.181 29.893C108.314 31.4492 106.419 32.0953 104.79 31.3896C102.903 30.5722 102.135 28.2923 103.139 26.4898L105.358 22.5052C106.1 21.1727 105.94 19.5167 104.958 18.3522L99.8129 12.255C98.4935 10.6913 98.8367 8.31816 100.544 7.19714C101.974 6.25861 103.875 6.53654 104.979 7.84567L106.738 9.92986C108.378 11.874 111.444 11.5753 112.683 9.35061L113.515 7.85553C114.382 6.29939 116.278 5.65332 117.906 6.35899Z" fill="#30A10E"/>
</svg>
