<svg width="28" height="28" viewBox="0 0 28 28" fill="none" xmlns="http://www.w3.org/2000/svg">
<path d="M24.5 9.91667V20.7083C24.5 22.8024 22.8024 24.5 20.7083 24.5H7.29167C5.19758 24.5 3.5 22.8024 3.5 20.7083V9.91667H24.5ZM8.45833 17.5C7.65291 17.5 7 18.1529 7 18.9583C7 19.7638 7.65291 20.4167 8.45833 20.4167C9.26375 20.4167 9.91667 19.7638 9.91667 18.9583C9.91667 18.1529 9.26375 17.5 8.45833 17.5ZM14 17.5C13.1945 17.5 12.5417 18.1529 12.5417 18.9583C12.5417 19.7638 13.1945 20.4167 14 20.4167C14.8055 20.4167 15.4583 19.7638 15.4583 18.9583C15.4583 18.1529 14.8055 17.5 14 17.5ZM8.45833 12.25C7.65291 12.25 7 12.9029 7 13.7083C7 14.5138 7.65291 15.1667 8.45833 15.1667C9.26375 15.1667 9.91667 14.5138 9.91667 13.7083C9.91667 12.9029 9.26375 12.25 8.45833 12.25ZM14 12.25C13.1945 12.25 12.5417 12.9029 12.5417 13.7083C12.5417 14.5138 13.1945 15.1667 14 15.1667C14.8055 15.1667 15.4583 14.5138 15.4583 13.7083C15.4583 12.9029 14.8055 12.25 14 12.25ZM19.5417 12.25C18.7362 12.25 18.0833 12.9029 18.0833 13.7083C18.0833 14.5138 18.7362 15.1667 19.5417 15.1667C20.3471 15.1667 21 14.5138 21 13.7083C21 12.9029 20.3471 12.25 19.5417 12.25ZM20.7083 3.5C22.8024 3.5 24.5 5.19758 24.5 7.29167V8.16667H3.5V7.29167C3.5 5.19758 5.19758 3.5 7.29167 3.5H20.7083Z" fill="#E4E4E4"/>
<path d="M24.5 7.29167C24.5 5.19758 22.8024 3.5 20.7083 3.5H7.29167C5.19758 3.5 3.5 5.19758 3.5 7.29167V8.16667H24.5V7.29167Z" fill="#FC3131"/>
</svg>
