<svg width="24" height="24" viewBox="0 0 24 24" fill="none" xmlns="http://www.w3.org/2000/svg">
<path d="M24 12C24 18.6274 18.6274 24 12 24C5.37258 24 0 18.6274 0 12C0 5.37258 5.37258 0 12 0C18.6274 0 24 5.37258 24 12Z" fill="#30A10E"/>
<path fill-rule="evenodd" clip-rule="evenodd" d="M18.1371 7.48098C18.4871 7.85537 18.4871 8.46236 18.1371 8.83675L10.9543 16.5194C10.7763 16.7097 10.5422 16.8033 10.3089 16.8001C10.0761 16.803 9.84245 16.7094 9.6648 16.5194L5.86213 12.4521C5.5121 12.0777 5.5121 11.4707 5.86213 11.0963C6.21216 10.722 6.77966 10.722 7.12969 11.0963L10.3095 14.4975L16.8695 7.48098C17.2196 7.1066 17.7871 7.1066 18.1371 7.48098Z" fill="white"/>
</svg>
