<svg width="28" height="28" viewBox="0 0 28 28" fill="none" xmlns="http://www.w3.org/2000/svg">
<path d="M28 14C28 21.732 21.732 28 14 28C6.26801 28 0 21.732 0 14C0 6.26801 6.26801 0 14 0C21.732 0 28 6.26801 28 14Z" fill="#F6FBF4"/>
<path fill-rule="evenodd" clip-rule="evenodd" d="M21.1603 8.72749C21.5686 9.16427 21.5686 9.87243 21.1603 10.3092L12.7803 19.2723C12.5727 19.4944 12.2995 19.6035 12.0274 19.5998C11.7558 19.6031 11.4832 19.494 11.2759 19.2723L6.83948 14.5271C6.43111 14.0903 6.43111 13.3822 6.83948 12.9454C7.24784 12.5086 7.90993 12.5086 8.31829 12.9454L12.0281 16.9134L19.6814 8.72749C20.0898 8.29071 20.7519 8.29071 21.1603 8.72749Z" fill="#30A10E"/>
</svg>
