<svg width="40" height="40" viewBox="0 0 40 40" fill="none" xmlns="http://www.w3.org/2000/svg">
<path d="M10.2599 15.5382L10.2559 15.5412L10.2493 15.5462L10.2321 15.5594C10.2187 15.5697 10.2019 15.583 10.1817 15.5992C10.1414 15.6317 10.0879 15.676 10.0234 15.7324C9.8944 15.8452 9.72075 16.0067 9.51995 16.2181C9.11887 16.6403 8.60548 17.266 8.12452 18.1045C7.1542 19.7962 6.33882 22.3173 6.79715 25.69C7.2493 29.0175 8.64657 31.7998 11.0112 33.7397C13.3674 35.6727 16.5582 36.6663 20.416 36.6663C24.3952 36.6663 27.5702 35.1753 29.673 32.6162C31.7567 30.0807 32.6863 26.6232 32.4639 22.843C32.2507 19.2167 30.2753 16.4654 28.5307 14.0351C28.3622 13.8004 28.1958 13.5687 28.0335 13.3395C26.1302 10.6534 24.6273 8.17729 24.9925 4.71406C25.0297 4.36169 24.9155 4.01009 24.6785 3.74674C24.4413 3.48339 24.1037 3.33301 23.7493 3.33301C23.1127 3.33301 22.3842 3.53004 21.6788 3.82632C20.9518 4.13172 20.1633 4.57886 19.3912 5.16124C17.85 6.32364 16.3092 8.07572 15.4866 10.419C14.6661 12.7565 15.0818 14.9845 15.6828 16.605C16.0775 17.6692 15.6494 18.7213 15.0051 19.0272C14.4353 19.2978 13.7535 19.0708 13.4597 18.5127L12.1141 15.9572C11.9439 15.6339 11.6407 15.4012 11.2843 15.3205C10.928 15.2397 10.5529 15.3198 10.2599 15.5382Z" fill="#FF243E"/>
</svg>
