<svg width="24" height="24" viewBox="0 0 24 24" fill="none" xmlns="http://www.w3.org/2000/svg">
<path d="M14.005 5.5H21.0018C21.5146 5.5 21.9373 5.88604 21.995 6.38338L22.0018 6.5V13.5C22.0018 14.0523 21.554 14.5 21.0018 14.5C20.4889 14.5 20.0663 14.114 20.0085 13.6166L20.0018 13.5L20.001 8.914L12.7089 16.2071C12.3486 16.5674 11.7818 16.5953 11.3895 16.2908L11.2953 16.2077L8.99921 13.9157L3.71112 19.2055C3.32066 19.5961 2.6875 19.5962 2.29691 19.2057C1.93637 18.8453 1.90855 18.2781 2.21351 17.8857L2.29668 17.7915L8.29127 11.795C8.65151 11.4346 9.2184 11.4066 9.61075 11.7112L9.70498 11.7943L12.0011 14.0864L18.586 7.5H14.005C13.4922 7.5 13.0695 7.11396 13.0118 6.61662L13.005 6.5C13.005 5.98716 13.3911 5.56449 13.8884 5.50673L14.005 5.5Z" fill="#30A10E"/>
</svg>
