<svg width="24" height="24" viewBox="0 0 24 24" fill="none" xmlns="http://www.w3.org/2000/svg">
<path d="M2 1.825C2 1.36937 2.3731 1 2.83333 1C3.29357 1 3.66667 1.36937 3.66667 1.825V22.175C3.66667 22.6306 3.29357 23 2.83333 23C2.3731 23 2 22.6306 2 22.175V1.825ZM7.83333 3.2C6.45262 3.2 5.33333 4.3081 5.33333 5.675V8.425C5.33333 9.7919 6.45262 10.9 7.83333 10.9H19.5C20.8807 10.9 22 9.7919 22 8.425V5.675C22 4.3081 20.8807 3.2 19.5 3.2H7.83333ZM7 5.675C7 5.21937 7.3731 4.85 7.83333 4.85H19.5C19.9602 4.85 20.3333 5.21937 20.3333 5.675V8.425C20.3333 8.88063 19.9602 9.25 19.5 9.25H7.83333C7.3731 9.25 7 8.88063 7 8.425V5.675ZM7.83333 13.1C6.45262 13.1 5.33333 14.2081 5.33333 15.575V18.325C5.33333 19.6919 6.45262 20.8 7.83333 20.8H15.6111C16.9918 20.8 18.1111 19.6919 18.1111 18.325V15.575C18.1111 14.2081 16.9918 13.1 15.6111 13.1H7.83333ZM7 15.575C7 15.1194 7.3731 14.75 7.83333 14.75H15.6111C16.0713 14.75 16.4444 15.1194 16.4444 15.575V18.325C16.4444 18.7806 16.0713 19.15 15.6111 19.15H7.83333C7.3731 19.15 7 18.7806 7 18.325V15.575Z" fill="white"/>
</svg>
