<svg width="24" height="24" viewBox="0 0 24 24" fill="none" xmlns="http://www.w3.org/2000/svg">
<path d="M12 1C18.0751 1 23 5.92487 23 12C23 18.0751 18.0751 23 12 23C5.92487 23 1 18.0751 1 12C1 5.92487 5.92487 1 12 1Z" stroke="#0053E2" stroke-width="2"/>
<path fill-rule="evenodd" clip-rule="evenodd" d="M18.139 7.48098C18.4891 7.85537 18.4891 8.46236 18.139 8.83675L10.9562 16.5194C10.7783 16.7097 10.5441 16.8033 10.3109 16.8001C10.0781 16.803 9.84441 16.7094 9.66676 16.5194L5.86408 12.4521C5.51406 12.0777 5.51406 11.4707 5.86408 11.0963C6.21411 10.722 6.78161 10.722 7.13164 11.0963L10.3115 14.4975L16.8715 7.48098C17.2215 7.1066 17.789 7.1066 18.139 7.48098Z" fill="#0053E2"/>
</svg>
