<svg width="24" height="24" viewBox="0 0 24 24" fill="none" xmlns="http://www.w3.org/2000/svg">
<path d="M6.80556 5.33333C6.2993 5.33333 5.88889 5.78105 5.88889 6.33333V11.6667C5.88889 12.2189 6.2993 12.6667 6.80556 12.6667H17.1944C17.7007 12.6667 18.1111 12.2189 18.1111 11.6667V6.33333C18.1111 5.78105 17.7007 5.33333 17.1944 5.33333H6.80556ZM7.72222 10.6667V7.33333H16.2778V10.6667H7.72222ZM19.0278 24C21.2215 24 23 22.0599 23 19.6667V4.33333C23 1.94009 21.2215 0 19.0278 0H4.97222C2.77842 0 1 1.94009 1 4.33333V19.6667C1 22.0599 2.77842 24 4.97222 24H19.0278ZM21.1667 4.33333V19.6667C21.1667 20.9553 20.2091 22 19.0278 22H4.97222C3.79094 22 2.83333 20.9553 2.83333 19.6667V4.33333C2.83333 3.04467 3.79094 2 4.97222 2H19.0278C20.2091 2 21.1667 3.04467 21.1667 4.33333Z" fill="white"/>
</svg>
