<svg width="60" height="60" viewBox="0 0 60 60" fill="none" xmlns="http://www.w3.org/2000/svg">
<path d="M46.2148 5.67822C48.4535 3.43964 52.0836 3.43971 54.3223 5.67822C56.5609 7.9169 56.5608 11.5469 54.3223 13.7856L38.1074 30.0005L54.3213 46.2144C56.56 48.4531 56.56 52.0831 54.3213 54.3218C52.0826 56.5602 48.4525 56.5604 46.2139 54.3218L30 38.1079L13.7871 54.3218C11.5484 56.5603 7.91833 56.5604 5.67969 54.3218C3.44106 52.0831 3.4412 48.4531 5.67969 46.2144L21.8926 30.0005L5.67871 13.7856C3.4403 11.5469 3.44011 7.91684 5.67871 5.67822C7.91732 3.43959 11.5474 3.43976 13.7861 5.67822L30 21.8921L46.2148 5.67822Z" fill="#FF243E"/>
</svg>
