<svg width="40" height="40" viewBox="0 0 40 40" fill="none" xmlns="http://www.w3.org/2000/svg">
<path d="M32.4717 1.2915C34.1937 -0.430522 36.986 -0.43048 38.708 1.2915C40.43 3.01356 40.43 5.80576 38.708 7.52783L26.2354 19.9995L38.708 32.4722C40.43 34.1942 40.4299 36.9864 38.708 38.7085C36.986 40.4306 34.1937 40.4306 32.4717 38.7085L19.999 26.2358L7.52734 38.7085C5.80529 40.4306 3.01307 40.4306 1.29102 38.7085C-0.430767 36.9864 -0.430944 34.1941 1.29102 32.4722L13.7627 19.9995L1.29102 7.52783C-0.430916 5.80576 -0.430995 3.01353 1.29102 1.2915C3.01304 -0.430527 5.80529 -0.430475 7.52734 1.2915L19.999 13.7632L32.4717 1.2915Z" fill="#2473FC"/>
</svg>
