<svg width="40" height="40" viewBox="0 0 40 40" fill="none" xmlns="http://www.w3.org/2000/svg">
<path d="M32.4717 1.2915C34.1937 -0.430495 36.986 -0.430502 38.708 1.2915C40.43 3.01354 40.43 5.80576 38.708 7.52783L26.2354 19.9995L38.708 32.4722C40.43 34.1942 40.4298 36.9864 38.708 38.7085C36.986 40.4306 34.1937 40.4306 32.4717 38.7085L19.999 26.2358L7.52734 38.7085C5.80529 40.4306 3.01307 40.4306 1.29102 38.7085C-0.430802 36.9864 -0.430957 34.1942 1.29102 32.4722L13.7627 19.9995L1.29102 7.52783C-0.430949 5.80576 -0.431006 3.01354 1.29102 1.2915C3.01305 -0.430502 5.8053 -0.430496 7.52734 1.2915L19.999 13.7632L32.4717 1.2915Z" fill="#FF243E"/>
</svg>
