<svg width="92" height="62" viewBox="0 0 92 62" fill="none" xmlns="http://www.w3.org/2000/svg">
<path d="M65.2878 61.9999C80.0402 61.9999 91.9994 50.075 91.9994 35.3649C91.9994 20.6548 80.0402 8.72998 65.2878 8.72998C50.5354 8.72998 38.5762 20.6548 38.5762 35.3649C38.5762 50.075 50.5354 61.9999 65.2878 61.9999Z" fill="#9D6EE2"/>
<path d="M53.4835 26.7503C54.5607 26.7503 55.4338 25.8796 55.4338 24.8056C55.4338 23.7315 54.5607 22.8608 53.4835 22.8608C52.4064 22.8608 51.5332 23.7315 51.5332 24.8056C51.5332 25.8796 52.4064 26.7503 53.4835 26.7503Z" fill="black"/>
<path d="M68.2198 31.1961C69.297 31.1961 70.1702 30.3254 70.1702 29.2514C70.1702 28.1773 69.297 27.3066 68.2198 27.3066C67.1427 27.3066 66.2695 28.1773 66.2695 29.2514C66.2695 30.3254 67.1427 31.1961 68.2198 31.1961Z" fill="black"/>
<path d="M47.8117 30.1574C48.205 30.1574 48.5238 29.8395 48.5238 29.4473C48.5238 29.0552 48.205 28.7373 47.8117 28.7373C47.4184 28.7373 47.0996 29.0552 47.0996 29.4473C47.0996 29.8395 47.4184 30.1574 47.8117 30.1574Z" fill="black"/>
<path d="M45.3371 30.6012C45.7303 30.6012 46.0492 30.2833 46.0492 29.8912C46.0492 29.499 45.7303 29.1812 45.3371 29.1812C44.9438 29.1812 44.625 29.499 44.625 29.8912C44.625 30.2833 44.9438 30.6012 45.3371 30.6012Z" fill="black"/>
<path d="M47.966 32.4376C48.3593 32.4376 48.6781 32.1197 48.6781 31.7276C48.6781 31.3355 48.3593 31.0176 47.966 31.0176C47.5727 31.0176 47.2539 31.3355 47.2539 31.7276C47.2539 32.1197 47.5727 32.4376 47.966 32.4376Z" fill="black"/>
<path d="M73.6886 37.359C74.0819 37.359 74.4007 37.0411 74.4007 36.649C74.4007 36.2569 74.0819 35.939 73.6886 35.939C73.2954 35.939 72.9766 36.2569 72.9766 36.649C72.9766 37.0411 73.2954 37.359 73.6886 37.359Z" fill="black"/>
<path d="M71.3136 38.1808C71.7069 38.1808 72.0257 37.8629 72.0257 37.4708C72.0257 37.0786 71.7069 36.7607 71.3136 36.7607C70.9204 36.7607 70.6016 37.0786 70.6016 37.4708C70.6016 37.8629 70.9204 38.1808 71.3136 38.1808Z" fill="black"/>
<path d="M74.1965 39.5871C74.5897 39.5871 74.9085 39.2692 74.9085 38.877C74.9085 38.4849 74.5897 38.167 74.1965 38.167C73.8032 38.167 73.4844 38.4849 73.4844 38.877C73.4844 39.2692 73.8032 39.5871 74.1965 39.5871Z" fill="black"/>
<path d="M59.6663 34.8261C60.2053 33.5161 59.7996 32.1094 58.7601 31.684C57.7206 31.2587 56.4409 31.9759 55.9019 33.2858C55.3628 34.5958 55.7685 36.0025 56.808 36.4278C57.8475 36.8532 59.1272 36.136 59.6663 34.8261Z" fill="black"/>
<path d="M35.8061 31.3916C38.3878 27.7645 39.4963 24.1304 38.2861 23.2734L63.2649 40.9403L63.1947 41.0382C63.8472 42.3009 62.7177 45.5502 60.4096 48.7926C58.1015 52.0385 55.4005 54.1756 53.9904 53.9797L53.9202 54.0776L28.9414 36.4108C30.1516 37.2677 33.2244 35.0187 35.8061 31.3916Z" fill="#FFC40C"/>
<mask id="mask0_1_2202" style="mask-type:luminance" maskUnits="userSpaceOnUse" x="28" y="23" width="36" height="32">
<path d="M35.8061 31.3916C38.3878 27.7645 39.4963 24.1304 38.2861 23.2734L63.2649 40.9403L63.1947 41.0382C63.8472 42.3009 62.7177 45.5502 60.4096 48.7926C58.1015 52.0385 55.4005 54.1756 53.9904 53.9797L53.9202 54.0776L28.9414 36.4108C30.1516 37.2677 33.2244 35.0187 35.8061 31.3916Z" fill="white"/>
</mask>
<g mask="url(#mask0_1_2202)">
<path d="M54.6475 26.2846L53.3426 25.1304C45.5905 33.8536 38.0803 36.8686 33.1484 37.862C27.8131 38.9358 24.2492 37.9459 24.2141 37.9354L23.7266 39.6073C23.8844 39.6528 27.6518 40.7196 33.3764 39.5933C38.5995 38.565 46.5305 35.4206 54.6475 26.2881V26.2846Z" fill="#F5846F"/>
<path d="M49.4913 22.6367L48.1864 21.4824C40.4342 30.2057 32.9241 33.2207 27.9922 34.214C22.6569 35.2878 19.093 34.298 19.0579 34.2875L18.5703 35.9594C18.7282 36.0048 22.4955 37.0716 28.2202 35.9454C33.4432 34.9171 41.3743 31.7726 49.4913 22.6402V22.6367Z" fill="#F5846F"/>
<path d="M60.3331 30.3037L59.0282 29.1494C51.276 37.8727 43.7659 40.8877 38.834 41.881C33.4987 42.9548 29.9348 41.965 29.8997 41.9545L29.4121 43.6229C29.57 43.6683 33.3373 44.7351 39.062 43.6089C44.285 42.5806 52.2161 39.4361 60.3331 30.3037Z" fill="#F5846F"/>
<path d="M66.0186 34.3256L64.7137 33.1714C56.9616 41.8946 49.4514 44.9096 44.5195 45.903C39.1842 46.9768 35.6203 45.9869 35.5852 45.9764L35.0977 47.6448C35.2555 47.6903 39.0264 48.7571 44.7475 47.6309C49.9706 46.6025 57.9016 43.4581 66.0186 34.3256Z" fill="#F5846F"/>
<path d="M71.7061 38.3481L70.4012 37.1938C62.6491 45.9171 55.1389 48.9321 50.207 49.9255C44.8717 50.9992 41.3078 50.0094 41.2727 49.9989L40.7852 51.6673C40.943 51.7128 44.7103 52.7796 50.435 51.6533C55.6581 50.625 63.5891 47.4806 71.7061 38.3481Z" fill="#F5846F"/>
</g>
<path d="M28.9431 36.4108C30.1532 37.2677 33.226 35.0187 35.8078 31.3916C38.3895 27.7645 39.4979 24.1304 38.2878 23.2734C37.0776 22.4165 34.0048 24.6655 31.4231 28.2926C28.8413 31.9197 27.7329 35.5539 28.9431 36.4108Z" fill="#F0AF19"/>
<g style="mix-blend-mode:multiply" opacity="0.4">
<path d="M30.797 36.2397C36.1253 40.3041 47.2905 47.4429 60.806 48.2228C60.6797 48.4152 60.5464 48.6041 60.4096 48.7965C58.1015 52.0423 55.4005 54.1794 53.9904 53.9835L53.9202 54.0815L28.9414 36.4146C29.3658 36.7154 30.0183 36.628 30.797 36.2432V36.2397Z" fill="#FFC40C"/>
</g>
<g opacity="0.3">
<path d="M57.0056 39.3246C56.8477 39.335 56.6899 39.2931 56.5496 39.1951L42.6307 29.3421C42.315 29.1183 42.2414 28.6811 42.4659 28.3663C42.6904 28.0515 43.1288 27.9745 43.4445 28.2019L57.3634 38.0549C57.6791 38.2787 57.7527 38.716 57.5282 39.0308C57.4019 39.2091 57.2055 39.3106 57.0021 39.3246H57.0056Z" fill="white"/>
</g>
<path d="M33.917 23.2946C30.6057 19.559 28.7887 16.5265 28.3677 14.0222C28.3116 13.6934 28.2835 12.9729 28.3467 12.1579C27.8766 11.5843 27.5364 10.8708 27.2908 10.3601L27.2102 10.1957C26.221 8.15657 25.9895 4.68336 26.3437 2.63721L27.2663 2.7946C26.9366 4.70784 27.1751 7.97119 28.0555 9.78649L28.1362 9.95438C28.266 10.2237 28.3993 10.493 28.5396 10.7484C28.7395 9.81098 29.0938 8.97153 29.6901 8.67073C30.0865 8.47136 30.7284 8.4084 31.5493 9.24435C32.0649 9.769 32.2438 10.6154 32.0088 11.4514C31.7773 12.2734 31.2195 12.8715 30.518 13.0533C30.0339 13.1758 29.613 13.1058 29.2412 12.9169C29.2341 13.2877 29.2517 13.62 29.2938 13.8648C29.6866 16.1908 31.43 19.0729 34.6221 22.6755L33.9205 23.2946H33.917ZM29.3078 11.8291C29.6025 12.102 29.9217 12.2419 30.2795 12.1509C30.6513 12.0565 30.967 11.6927 31.1038 11.2031C31.2441 10.6959 31.1564 10.1852 30.8793 9.90192C30.7249 9.74452 30.3391 9.39125 30.1146 9.50668C29.7112 9.71304 29.4341 10.7658 29.3113 11.8291H29.3078Z" fill="#82AA8E"/>
<path d="M14.6693 32.9206C14.5044 32.9311 14.343 32.9136 14.1957 32.8681C13.8555 32.7632 13.4135 32.4659 13.2346 31.6474C13.1118 31.0773 13.2346 30.5107 13.6029 30.0035C13.8485 29.6643 14.1852 29.3704 14.564 29.1186C13.7222 29.1186 12.6242 29.3984 11.6175 29.6503C10.6283 29.8986 9.69175 30.1364 8.97266 30.1294L8.97967 29.1956C9.5795 29.1991 10.4564 28.9787 11.386 28.7444C13.0522 28.3246 14.7745 27.8909 15.89 28.4506C16.6371 28.1637 17.3667 28.0029 17.8087 27.9539C20.9412 27.6146 23.0178 27.828 27.0096 29.979L26.5641 30.801C22.7652 28.7549 20.9026 28.5625 17.9069 28.8808C17.5983 28.9157 17.1458 29.0137 16.6547 29.1711C16.7494 29.3355 16.8195 29.5208 16.8686 29.7237C17.1212 30.7485 16.5389 31.7419 15.9636 32.2805C15.5497 32.6688 15.0867 32.8891 14.6587 32.9206H14.6693ZM15.7742 29.5208C15.1954 29.7902 14.6623 30.1364 14.3641 30.5492C14.1536 30.8395 14.0835 31.1333 14.1501 31.4481C14.1887 31.6195 14.2799 31.9168 14.4728 31.9762C14.6798 32.0427 15.0271 31.8888 15.3322 31.602C15.7532 31.2067 16.1145 30.5422 15.9671 29.9476C15.925 29.7727 15.8619 29.6328 15.7707 29.5208H15.7742Z" fill="#FFC40C"/>
<path d="M27.6299 25.3513C23.9081 25.047 18.4571 21.6822 16.2507 18.989C15.479 18.0481 14.5213 16.67 14.6266 15.152C13.6725 14.7743 12.6096 13.7249 11.7186 11.2661C11.3398 10.2238 11.2661 8.70226 11.5327 7.67044C10.7224 7.42211 9.94721 6.94292 9.49471 6.42176C8.31259 5.07515 8.17929 2.84013 8.07055 1.04581C8.04951 0.706534 8.02846 0.381249 8.00391 0.0804469L8.93697 0C8.96503 0.307797 8.98257 0.643576 9.00362 0.989847C9.10534 2.64426 9.22812 4.7009 10.1998 5.80617C10.5295 6.18392 11.1258 6.55118 11.7327 6.75055C11.8309 6.39378 11.9993 6.02653 12.3676 5.82016C12.9674 5.49138 13.8514 5.72922 14.3039 5.97056L14.6511 6.15594L14.5248 6.53019C14.2933 7.21924 13.8022 7.65645 13.1042 7.79636C12.8972 7.83833 12.6798 7.84882 12.4553 7.83833C12.2132 8.67428 12.2764 10.0629 12.5956 10.9478C13.0656 12.2454 13.7987 13.718 14.8195 14.2181C15.279 12.896 16.1244 12.889 16.391 12.9205C16.9768 12.9939 17.4293 13.4976 17.4223 14.0677C17.4223 14.3231 17.296 15.1625 15.8192 15.3129C15.7315 15.3234 15.6438 15.3269 15.5526 15.3269C15.5316 16.4811 16.3278 17.6109 16.9733 18.3944C19.0604 20.9442 24.2028 24.1306 27.7035 24.4139L27.6264 25.3443L27.6299 25.3513ZM16.2366 13.8509C16.0893 13.8614 15.9104 14.0292 15.7596 14.386C16.2857 14.3266 16.4822 14.1552 16.4857 14.0607C16.4857 13.9803 16.391 13.8684 16.2752 13.8509C16.2612 13.8509 16.2507 13.8509 16.2366 13.8509ZM12.6622 6.91494C12.7534 6.91494 12.8376 6.90445 12.9218 6.88696C13.1252 6.84499 13.2831 6.76454 13.4059 6.64212C13.1744 6.58965 12.9428 6.57916 12.8236 6.64212C12.7534 6.68059 12.7008 6.78552 12.6622 6.91494Z" fill="#F5846F"/>
<path d="M22.9903 10.8359L22.857 11.8083L21.9766 12.2455L22.8605 12.6757L23.0078 13.6446L23.6919 12.9381L24.66 13.0989L24.197 12.2315L24.6495 11.3606L23.6813 11.5355L22.9903 10.8359Z" fill="#F5846F"/>
<path d="M32.8614 14.0889L32.7281 15.0577L31.8477 15.4984L32.7316 15.9252L32.8789 16.894L33.563 16.1875L34.5311 16.3484L34.0681 15.4844L34.5206 14.6135L33.5524 14.7849L32.8614 14.0889Z" fill="#9B5D70"/>
<path d="M18.5156 32.5007L19.0699 33.2492L18.7612 34.1271L19.6486 33.8368L20.3923 34.4L20.3888 33.4661L21.1535 32.9344L20.266 32.6546L19.9959 31.7627L19.4487 32.5182L18.5156 32.5007Z" fill="#F5846F"/>
<path d="M4.81641 17.7475L6.59835 18.4645L7.01928 20.3393L8.25402 18.8668L10.1693 19.0486L9.1485 17.4222L9.91319 15.6629L8.04706 16.1281L6.60186 14.8584L6.47207 16.7751L4.81641 17.7475Z" fill="#FFC40C"/>
<path d="M14.1788 23.903C14.3893 24.5396 15.0803 24.8859 15.7222 24.676C16.3607 24.4627 16.7079 23.7771 16.4975 23.137C16.2835 22.5005 15.596 22.1542 14.954 22.364C14.3156 22.5774 13.9684 23.263 14.1823 23.903H14.1788Z" fill="#F5846F"/>
<path d="M26.982 28.3979C27.3608 28.5867 27.8239 28.4363 28.0168 28.0551C28.2062 27.6773 28.0554 27.2156 27.673 27.0233C27.2942 26.8344 26.8312 26.9848 26.6382 27.366C26.4488 27.7438 26.5997 28.2055 26.982 28.3979Z" fill="#9B5D70"/>
<path d="M17.024 2.03921C17.2766 2.79471 18.0904 3.20045 18.848 2.95211C19.6057 2.70028 20.0161 1.88881 19.7636 1.13331C19.511 0.377807 18.6972 -0.0279258 17.9395 0.22041C17.1854 0.472244 16.7749 1.28371 17.024 2.03921Z" fill="#82AA8E"/>
<path d="M29.9813 5.43518C30.1497 5.93885 30.6969 6.21167 31.202 6.04378C31.7071 5.87589 31.9807 5.33025 31.8124 4.82658C31.644 4.32292 31.0968 4.0501 30.5917 4.21798C30.0865 4.38587 29.8129 4.92802 29.9813 5.43518Z" fill="#FFC40C"/>
<path d="M0.40156 7.02204L0 9.91504L2.90133 10.3154L3.30289 7.42245L0.40156 7.02204Z" fill="#82AA8E"/>
<path d="M24.4611 18.6932L23.2109 20.772L25.2957 22.0186L26.5459 19.9398L24.4611 18.6932Z" fill="#FFC40C"/>
<path d="M25.392 32.9903L22.459 33.9609L23.4324 36.8855L26.3654 35.9149L25.392 32.9903Z" fill="#82AA8E"/>
</svg>
