<svg width="24" height="24" viewBox="0 0 24 24" fill="none" xmlns="http://www.w3.org/2000/svg">
<path d="M24 12C24 18.6274 18.6274 24 12 24C5.37258 24 0 18.6274 0 12C0 5.37258 5.37258 0 12 0C18.6274 0 24 5.37258 24 12Z" fill="#B7B7B7"/>
<path fill-rule="evenodd" clip-rule="evenodd" d="M18.1376 7.48098C18.4876 7.85537 18.4876 8.46236 18.1376 8.83675L10.9547 16.5194C10.7768 16.7097 10.5426 16.8033 10.3094 16.8001C10.0766 16.803 9.84294 16.7094 9.66529 16.5194L5.86262 12.4521C5.51259 12.0777 5.51259 11.4707 5.86262 11.0963C6.21264 10.722 6.78015 10.722 7.13018 11.0963L10.31 14.4975L16.87 7.48098C17.22 7.1066 17.7876 7.1066 18.1376 7.48098Z" fill="white"/>
</svg>
