<svg width="20" height="20" viewBox="0 0 20 20" fill="none" xmlns="http://www.w3.org/2000/svg">
<rect x="4.71289" y="3.96484" width="13.3325" height="14.5833" rx="2" transform="rotate(1.14008 4.71289 3.96484)" fill="#F4B940"/>
<rect width="13.3075" height="12.8593" rx="2" transform="matrix(0.971447 0.237256 -0.253541 0.967325 5.35938 1.06055)" fill="#FFE9BD"/>
<ellipse cx="10.0619" cy="9.32165" rx="3.63614" ry="3.5" transform="rotate(1.14008 10.0619 9.32165)" fill="#FF243E"/>
<path d="M11.1372 7.67083C11.3104 7.42856 11.6527 7.36606 11.9009 7.53072C12.1487 7.69541 12.2096 8.02484 12.0366 8.26697L10.191 10.847C10.1609 10.8889 10.1241 10.9233 10.0853 10.9543C10.0449 11.0229 9.99032 11.0851 9.91769 11.1316C9.667 11.292 9.32614 11.2235 9.1569 10.9788L8.15716 9.5328C7.98793 9.28799 8.05391 8.95866 8.30461 8.79829C8.55531 8.63801 8.89617 8.70735 9.06537 8.95213L9.63314 9.77316L11.1372 7.67083Z" fill="white"/>
</svg>
