<svg width="24" height="24" viewBox="0 0 24 24" fill="none" xmlns="http://www.w3.org/2000/svg">
<path d="M24 12C24 18.6274 18.6274 24 12 24C5.37258 24 0 18.6274 0 12C0 5.37258 5.37258 0 12 0C18.6274 0 24 5.37258 24 12Z" fill="#30A10E"/>
<path fill-rule="evenodd" clip-rule="evenodd" d="M18.1374 7.48098C18.4874 7.85537 18.4874 8.46236 18.1374 8.83675L10.9546 16.5194C10.7766 16.7097 10.5425 16.8033 10.3093 16.8001C10.0764 16.803 9.84276 16.7094 9.66511 16.5194L5.86243 12.4521C5.51241 12.0777 5.51241 11.4707 5.86243 11.0963C6.21246 10.722 6.77997 10.722 7.12999 11.0963L10.3098 14.4975L16.8698 7.48098C17.2199 7.1066 17.7874 7.1066 18.1374 7.48098Z" fill="white"/>
</svg>
