<svg width="60" height="60" viewBox="0 0 60 60" fill="none" xmlns="http://www.w3.org/2000/svg">
<path d="M38.845 47.4975L38.1182 50.6437C37.5603 53.052 35.5033 54.796 33.0713 54.9825L32.6385 54.999H27.3592C24.8856 54.999 22.7212 53.3867 21.9919 51.058L21.8784 50.6397L21.1525 47.4975H38.845ZM30 5.00244C40.0103 5.00244 48.125 13.1173 48.125 23.1274C48.125 28.4687 45.786 33.3607 41.2115 37.7292C41.1233 37.8135 41.0618 37.9217 41.0343 38.0405L39.715 43.7475H20.285L18.97 38.041C18.9425 37.922 18.8809 37.8137 18.7925 37.7292C14.2154 33.3607 11.875 28.4687 11.875 23.1274C11.875 13.1173 19.9898 5.00244 30 5.00244Z" fill="#FFE267"/>
<path d="M38.1182 50.6437L38.845 47.4975H21.1525L21.8784 50.6397L21.9919 51.058C22.7212 53.3867 24.8856 54.999 27.3592 54.999H32.6385L33.0713 54.9825C35.5033 54.796 37.5603 53.052 38.1182 50.6437Z" fill="#53544E"/>
</svg>
