<svg width="448" height="108" viewBox="0 0 448 108" fill="none" xmlns="http://www.w3.org/2000/svg">
<mask id="path-1-inside-1_50_3967" fill="white">
<path d="M0 0H448V108H0V0Z"/>
</mask>
<path d="M448 108V107H0V108V109H448V108Z" fill="#222222" mask="url(#path-1-inside-1_50_3967)"/>
<path d="M22.5011 33.774C22.1931 33.774 21.9038 33.6947 21.6331 33.536C21.3718 33.3773 21.1571 33.158 20.9891 32.878C20.8304 32.5887 20.7511 32.2573 20.7511 31.884C20.7511 31.5107 20.8304 31.184 20.9891 30.904C21.1571 30.6147 21.3718 30.3907 21.6331 30.232C21.9038 30.0733 22.1931 29.994 22.5011 29.994C22.8091 29.994 23.0938 30.0733 23.3551 30.232C23.6258 30.3907 23.8404 30.6147 23.9991 30.904C24.1671 31.184 24.2511 31.5107 24.2511 31.884C24.2511 32.2573 24.1671 32.5887 23.9991 32.878C23.8404 33.158 23.6258 33.3773 23.3551 33.536C23.0938 33.6947 22.8091 33.774 22.5011 33.774ZM33.686 30.89H45.166V31.842H33.686V30.89ZM38.922 31.492H40.084V34.404H38.922V31.492ZM35.17 25.024H43.668V29.462H35.17V25.024ZM42.534 25.948H36.304V28.538H42.534V25.948ZM35.142 35.86H43.892V36.812H35.142V35.86ZM35.142 33.186H36.304V36.182H35.142V33.186ZM56.2109 24.422H57.3169V37.092H56.2109V24.422ZM51.5909 28.972H54.0269V29.924H51.5909V28.972ZM53.6769 24.716H54.7689V36.434H53.6769V24.716ZM49.1689 26.396H50.0649V28.006C50.0649 28.6967 49.9996 29.3733 49.8689 30.036C49.7382 30.6893 49.5469 31.3053 49.2949 31.884C49.0429 32.4533 48.7349 32.9713 48.3709 33.438C48.0069 33.8953 47.5962 34.2687 47.1389 34.558L46.4249 33.69C47.0129 33.3353 47.5076 32.8593 47.9089 32.262C48.3196 31.6647 48.6322 30.9973 48.8469 30.26C49.0616 29.5227 49.1689 28.7713 49.1689 28.006V26.396ZM49.4069 26.396H50.2889V28.006C50.2889 28.734 50.3916 29.448 50.5969 30.148C50.8116 30.848 51.1149 31.4827 51.5069 32.052C51.9082 32.612 52.3982 33.06 52.9769 33.396L52.2769 34.264C51.6609 33.8813 51.1382 33.3727 50.7089 32.738C50.2889 32.094 49.9669 31.366 49.7429 30.554C49.5189 29.7327 49.4069 28.8833 49.4069 28.006V26.396ZM46.7749 25.906H52.5569V26.858H46.7749V25.906ZM62.8038 26.242H63.7558V28.286C63.7558 28.958 63.6625 29.6207 63.4758 30.274C63.2891 30.918 63.0278 31.5293 62.6918 32.108C62.3651 32.6773 61.9825 33.1813 61.5438 33.62C61.1051 34.0587 60.6338 34.404 60.1298 34.656L59.4578 33.732C59.9151 33.508 60.3445 33.2047 60.7458 32.822C61.1565 32.4393 61.5158 32.0007 61.8238 31.506C62.1318 31.0113 62.3698 30.4887 62.5378 29.938C62.7151 29.3873 62.8038 28.8367 62.8038 28.286V26.242ZM63.0418 26.242H63.9798V28.286C63.9798 28.818 64.0638 29.35 64.2318 29.882C64.4091 30.4047 64.6518 30.8993 64.9598 31.366C65.2771 31.8233 65.6365 32.2293 66.0378 32.584C66.4485 32.9387 66.8871 33.2187 67.3538 33.424L66.7098 34.348C66.1965 34.1053 65.7158 33.7787 65.2678 33.368C64.8198 32.9573 64.4278 32.486 64.0918 31.954C63.7651 31.4127 63.5085 30.834 63.3218 30.218C63.1351 29.5927 63.0418 28.9487 63.0418 28.286V26.242ZM59.8638 25.724H66.9338V26.69H59.8638V25.724ZM68.6558 24.422H69.8178V37.092H68.6558V24.422ZM77.4747 29.35H79.8547V30.302H77.4747V29.35ZM81.9827 24.422H83.1027V37.092H81.9827V24.422ZM79.4627 24.688H80.5687V36.448H79.4627V24.688ZM75.1787 25.486C75.7294 25.486 76.2054 25.6633 76.6067 26.018C77.0174 26.3727 77.3347 26.8813 77.5587 27.544C77.7827 28.2067 77.8947 28.986 77.8947 29.882C77.8947 30.7873 77.7827 31.5713 77.5587 32.234C77.3347 32.8967 77.0174 33.41 76.6067 33.774C76.2054 34.1287 75.7294 34.306 75.1787 34.306C74.6467 34.306 74.1754 34.1287 73.7647 33.774C73.3634 33.41 73.0507 32.8967 72.8267 32.234C72.6027 31.5713 72.4907 30.7873 72.4907 29.882C72.4907 28.986 72.6027 28.2067 72.8267 27.544C73.0507 26.8813 73.3634 26.3727 73.7647 26.018C74.1754 25.6633 74.6467 25.486 75.1787 25.486ZM75.1787 26.564C74.8521 26.564 74.5674 26.6993 74.3247 26.97C74.0821 27.2407 73.8954 27.6233 73.7647 28.118C73.6341 28.6127 73.5687 29.2007 73.5687 29.882C73.5687 30.5633 73.6341 31.156 73.7647 31.66C73.8954 32.1547 74.0821 32.5373 74.3247 32.808C74.5674 33.0787 74.8521 33.214 75.1787 33.214C75.5147 33.214 75.8041 33.0787 76.0467 32.808C76.2987 32.5373 76.4901 32.1547 76.6207 31.66C76.7514 31.156 76.8167 30.5633 76.8167 29.882C76.8167 29.2007 76.7514 28.6127 76.6207 28.118C76.4901 27.6233 76.2987 27.2407 76.0467 26.97C75.8041 26.6993 75.5147 26.564 75.1787 26.564ZM91.5385 25.136H92.5045V26.438C92.5045 27.2593 92.3552 28.0153 92.0565 28.706C91.7672 29.3967 91.3565 30.0033 90.8245 30.526C90.3018 31.0393 89.6765 31.4313 88.9485 31.702L88.3325 30.764C88.9858 30.5307 89.5505 30.1993 90.0265 29.77C90.5025 29.3407 90.8712 28.8413 91.1325 28.272C91.4032 27.6933 91.5385 27.082 91.5385 26.438V25.136ZM91.7485 25.136H92.6865V26.396C92.6865 26.9933 92.8172 27.558 93.0785 28.09C93.3398 28.622 93.6992 29.0933 94.1565 29.504C94.6232 29.9053 95.1645 30.2087 95.7805 30.414L95.1505 31.324C94.4692 31.0627 93.8718 30.694 93.3585 30.218C92.8452 29.742 92.4485 29.1773 92.1685 28.524C91.8885 27.8707 91.7485 27.1613 91.7485 26.396V25.136ZM97.6005 24.422H98.7625V31.912H97.6005V24.422ZM94.5905 32.29C95.8972 32.29 96.9238 32.5 97.6705 32.92C98.4265 33.34 98.8045 33.928 98.8045 34.684C98.8045 35.4307 98.4265 36.014 97.6705 36.434C96.9238 36.854 95.8972 37.064 94.5905 37.064C93.2838 37.064 92.2525 36.854 91.4965 36.434C90.7498 36.014 90.3765 35.4307 90.3765 34.684C90.3765 33.928 90.7498 33.34 91.4965 32.92C92.2525 32.5 93.2838 32.29 94.5905 32.29ZM94.5905 33.214C93.9558 33.214 93.4098 33.2747 92.9525 33.396C92.4952 33.508 92.1405 33.676 91.8885 33.9C91.6458 34.1147 91.5245 34.376 91.5245 34.684C91.5245 34.9827 91.6458 35.244 91.8885 35.468C92.1405 35.6827 92.4952 35.8507 92.9525 35.972C93.4098 36.084 93.9558 36.14 94.5905 36.14C95.2345 36.14 95.7805 36.084 96.2285 35.972C96.6858 35.8507 97.0358 35.6827 97.2785 35.468C97.5305 35.244 97.6565 34.9827 97.6565 34.684C97.6565 34.376 97.5305 34.1147 97.2785 33.9C97.0358 33.676 96.6858 33.508 96.2285 33.396C95.7805 33.2747 95.2345 33.214 94.5905 33.214ZM94.8425 27.096H97.8385V28.062H94.8425V27.096ZM107.259 26.48H110.913V27.418H107.259V26.48ZM107.259 28.986H110.941V29.938H107.259V28.986ZM110.479 24.422H111.641V31.912H110.479V24.422ZM101.813 25.388H107.581V31.016H101.813V25.388ZM106.447 26.326H102.947V30.078H106.447V26.326ZM107.469 32.29C108.776 32.29 109.803 32.5 110.549 32.92C111.305 33.34 111.683 33.928 111.683 34.684C111.683 35.44 111.305 36.0233 110.549 36.434C109.803 36.854 108.776 37.064 107.469 37.064C106.163 37.064 105.131 36.854 104.375 36.434C103.629 36.0233 103.255 35.44 103.255 34.684C103.255 33.928 103.629 33.34 104.375 32.92C105.131 32.5 106.163 32.29 107.469 32.29ZM107.469 33.2C106.835 33.2 106.289 33.2607 105.831 33.382C105.374 33.494 105.019 33.662 104.767 33.886C104.525 34.1007 104.403 34.3667 104.403 34.684C104.403 34.9827 104.525 35.244 104.767 35.468C105.019 35.6827 105.374 35.8507 105.831 35.972C106.289 36.0933 106.835 36.154 107.469 36.154C108.113 36.154 108.659 36.0933 109.107 35.972C109.565 35.8507 109.915 35.6827 110.157 35.468C110.409 35.244 110.535 34.9827 110.535 34.684C110.535 34.3667 110.409 34.1007 110.157 33.886C109.915 33.662 109.565 33.494 109.107 33.382C108.659 33.2607 108.113 33.2 107.469 33.2ZM114.678 25.808H120.39V26.76H114.678V25.808ZM116.652 29.434H117.8V33.718H116.652V29.434ZM119.914 25.808H121.062V26.494C121.062 27.0073 121.044 27.6793 121.006 28.51C120.978 29.3407 120.876 30.344 120.698 31.52L119.55 31.422C119.737 30.274 119.844 29.294 119.872 28.482C119.9 27.67 119.914 27.0073 119.914 26.494V25.808ZM122.644 24.422H123.806V37.092H122.644V24.422ZM123.484 29.714H125.822V30.708H123.484V29.714ZM114.118 34.32L113.978 33.354C114.734 33.3447 115.56 33.3353 116.456 33.326C117.362 33.3073 118.276 33.27 119.2 33.214C120.134 33.158 121.025 33.0787 121.874 32.976L121.944 33.844C121.067 33.984 120.166 34.0867 119.242 34.152C118.328 34.2173 117.432 34.264 116.554 34.292C115.677 34.3107 114.865 34.32 114.118 34.32ZM135.238 24.87H136.26V25.584C136.26 26.0693 136.167 26.5267 135.98 26.956C135.793 27.376 135.537 27.7633 135.21 28.118C134.893 28.4727 134.519 28.79 134.09 29.07C133.661 29.35 133.194 29.5833 132.69 29.77C132.195 29.9567 131.687 30.092 131.164 30.176L130.688 29.238C131.155 29.1727 131.607 29.0607 132.046 28.902C132.494 28.7433 132.909 28.552 133.292 28.328C133.675 28.0947 134.011 27.8333 134.3 27.544C134.599 27.2547 134.827 26.9467 134.986 26.62C135.154 26.284 135.238 25.9387 135.238 25.584V24.87ZM135.434 24.87H136.442V25.584C136.442 25.9387 136.526 26.2793 136.694 26.606C136.862 26.9327 137.091 27.2407 137.38 27.53C137.679 27.8193 138.019 28.0807 138.402 28.314C138.785 28.5473 139.195 28.7433 139.634 28.902C140.082 29.0607 140.535 29.1727 140.992 29.238L140.53 30.176C140.007 30.092 139.499 29.9567 139.004 29.77C138.509 29.574 138.043 29.336 137.604 29.056C137.175 28.776 136.797 28.4587 136.47 28.104C136.153 27.7493 135.901 27.362 135.714 26.942C135.527 26.5127 135.434 26.06 135.434 25.584V24.87ZM135.238 32.276H136.386V37.092H135.238V32.276ZM130.114 31.548H141.552V32.514H130.114V31.548ZM152.247 24.422H153.409V32.094H152.247V24.422ZM150.147 28.272H152.765V29.238H150.147V28.272ZM145.191 32.766H153.409V36.924H145.191V32.766ZM152.275 33.704H146.339V35.972H152.275V33.704ZM143.007 25.738H150.329V26.69H143.007V25.738ZM146.675 27.334C147.244 27.334 147.748 27.4273 148.187 27.614C148.626 27.8007 148.966 28.0667 149.209 28.412C149.461 28.748 149.587 29.14 149.587 29.588C149.587 30.0453 149.461 30.442 149.209 30.778C148.966 31.114 148.626 31.3753 148.187 31.562C147.748 31.7487 147.244 31.842 146.675 31.842C146.106 31.842 145.597 31.7487 145.149 31.562C144.71 31.3753 144.365 31.114 144.113 30.778C143.87 30.442 143.749 30.0453 143.749 29.588C143.749 29.14 143.87 28.748 144.113 28.412C144.365 28.0667 144.71 27.8007 145.149 27.614C145.597 27.4273 146.106 27.334 146.675 27.334ZM146.675 28.23C146.32 28.23 146.003 28.286 145.723 28.398C145.452 28.51 145.238 28.6687 145.079 28.874C144.93 29.0793 144.855 29.3173 144.855 29.588C144.855 29.8587 144.93 30.0967 145.079 30.302C145.238 30.5073 145.452 30.6707 145.723 30.792C146.003 30.904 146.32 30.96 146.675 30.96C147.03 30.96 147.342 30.904 147.613 30.792C147.884 30.6707 148.094 30.5073 148.243 30.302C148.402 30.0967 148.481 29.8587 148.481 29.588C148.481 29.3173 148.402 29.0793 148.243 28.874C148.094 28.6687 147.884 28.51 147.613 28.398C147.342 28.286 147.03 28.23 146.675 28.23ZM146.101 24.31H147.249V26.424H146.101V24.31ZM161.85 27.992H165.476V28.944H161.85V27.992ZM165.126 24.436H166.288V33.802H165.126V24.436ZM158.154 35.86H166.582V36.812H158.154V35.86ZM158.154 32.892H159.316V36.336H158.154V32.892ZM156.488 25.276H157.65V27.502H161.066V25.276H162.214V31.646H156.488V25.276ZM157.65 28.412V30.708H161.066V28.412H157.65ZM169.311 26.284H179.601V27.236H169.311V26.284ZM168.751 34.656H180.231V35.608H168.751V34.656ZM173.889 32.64H175.037V35.02H173.889V32.64ZM174.463 28.076C175.312 28.076 176.045 28.174 176.661 28.37C177.286 28.5567 177.767 28.8273 178.103 29.182C178.439 29.5367 178.607 29.9707 178.607 30.484C178.607 30.988 178.439 31.422 178.103 31.786C177.767 32.15 177.286 32.43 176.661 32.626C176.045 32.8127 175.312 32.906 174.463 32.906C173.613 32.906 172.876 32.8127 172.251 32.626C171.635 32.43 171.159 32.15 170.823 31.786C170.487 31.422 170.319 30.988 170.319 30.484C170.319 29.9707 170.487 29.5367 170.823 29.182C171.159 28.8273 171.635 28.5567 172.251 28.37C172.876 28.174 173.613 28.076 174.463 28.076ZM174.463 29C173.847 29 173.315 29.0607 172.867 29.182C172.428 29.294 172.087 29.462 171.845 29.686C171.611 29.9007 171.495 30.1667 171.495 30.484C171.495 30.792 171.611 31.058 171.845 31.282C172.087 31.506 172.428 31.6787 172.867 31.8C173.315 31.912 173.847 31.968 174.463 31.968C175.079 31.968 175.606 31.912 176.045 31.8C176.483 31.6787 176.824 31.506 177.067 31.282C177.309 31.058 177.431 30.792 177.431 30.484C177.431 30.1667 177.309 29.9007 177.067 29.686C176.824 29.462 176.483 29.294 176.045 29.182C175.606 29.0607 175.079 29 174.463 29ZM173.889 24.632H175.037V26.858H173.889V24.632ZM181.616 30.302H193.096V31.198H181.616V30.302ZM182.988 32.206H191.668V34.908H184.164V36.392H183.016V34.11H190.52V33.046H182.988V32.206ZM183.016 36.084H192.074V36.924H183.016V36.084ZM183.072 24.8H191.626V27.432H184.248V28.804H183.1V26.648H190.478V25.626H183.072V24.8ZM183.1 28.524H191.85V29.364H183.1V28.524ZM200.761 25.724H201.713V26.746C201.713 27.5207 201.564 28.244 201.265 28.916C200.976 29.5787 200.57 30.1573 200.047 30.652C199.525 31.1373 198.909 31.506 198.199 31.758L197.583 30.862C198.218 30.638 198.773 30.316 199.249 29.896C199.725 29.476 200.094 29 200.355 28.468C200.626 27.9267 200.761 27.3527 200.761 26.746V25.724ZM200.971 25.724H201.923V26.746C201.923 27.2967 202.049 27.8287 202.301 28.342C202.553 28.8553 202.908 29.308 203.365 29.7C203.832 30.092 204.373 30.3953 204.989 30.61L204.401 31.52C203.711 31.268 203.104 30.9087 202.581 30.442C202.068 29.966 201.671 29.4107 201.391 28.776C201.111 28.1413 200.971 27.4647 200.971 26.746V25.724ZM197.933 25.304H204.709V26.256H197.933V25.304ZM206.305 24.422H207.467V32.052H206.305V24.422ZM207.145 27.754H209.329V28.734H207.145V27.754ZM199.235 32.724H207.467V37.092H206.305V33.676H199.235V32.724ZM213.71 25.136H214.676V26.438C214.676 27.2593 214.527 28.0153 214.228 28.706C213.939 29.3967 213.528 30.0033 212.996 30.526C212.474 31.0393 211.848 31.4313 211.12 31.702L210.504 30.764C211.158 30.5307 211.722 30.1993 212.198 29.77C212.674 29.3407 213.043 28.8413 213.304 28.272C213.575 27.6933 213.71 27.082 213.71 26.438V25.136ZM213.92 25.136H214.858V26.396C214.858 26.9933 214.989 27.558 215.25 28.09C215.512 28.622 215.871 29.0933 216.328 29.504C216.795 29.9053 217.336 30.2087 217.952 30.414L217.322 31.324C216.641 31.0627 216.044 30.694 215.53 30.218C215.017 29.742 214.62 29.1773 214.34 28.524C214.06 27.8707 213.92 27.1613 213.92 26.396V25.136ZM219.772 24.422H220.934V31.912H219.772V24.422ZM216.762 32.29C218.069 32.29 219.096 32.5 219.842 32.92C220.598 33.34 220.976 33.928 220.976 34.684C220.976 35.4307 220.598 36.014 219.842 36.434C219.096 36.854 218.069 37.064 216.762 37.064C215.456 37.064 214.424 36.854 213.668 36.434C212.922 36.014 212.548 35.4307 212.548 34.684C212.548 33.928 212.922 33.34 213.668 32.92C214.424 32.5 215.456 32.29 216.762 32.29ZM216.762 33.214C216.128 33.214 215.582 33.2747 215.124 33.396C214.667 33.508 214.312 33.676 214.06 33.9C213.818 34.1147 213.696 34.376 213.696 34.684C213.696 34.9827 213.818 35.244 214.06 35.468C214.312 35.6827 214.667 35.8507 215.124 35.972C215.582 36.084 216.128 36.14 216.762 36.14C217.406 36.14 217.952 36.084 218.4 35.972C218.858 35.8507 219.208 35.6827 219.45 35.468C219.702 35.244 219.828 34.9827 219.828 34.684C219.828 34.376 219.702 34.1147 219.45 33.9C219.208 33.676 218.858 33.508 218.4 33.396C217.952 33.2747 217.406 33.214 216.762 33.214ZM217.014 27.096H220.01V28.062H217.014V27.096ZM231.979 24.422H233.127V37.092H231.979V24.422ZM232.861 29.63H235.199V30.61H232.861V29.63ZM223.327 26.452H230.789V27.404H223.327V26.452ZM227.121 28.44C227.719 28.44 228.246 28.566 228.703 28.818C229.17 29.07 229.534 29.4153 229.795 29.854C230.066 30.2833 230.201 30.7827 230.201 31.352C230.201 31.9213 230.066 32.4253 229.795 32.864C229.534 33.3027 229.17 33.648 228.703 33.9C228.246 34.1427 227.719 34.264 227.121 34.264C226.524 34.264 225.992 34.1427 225.525 33.9C225.068 33.648 224.704 33.3027 224.433 32.864C224.163 32.4253 224.027 31.9213 224.027 31.352C224.027 30.7827 224.163 30.2833 224.433 29.854C224.704 29.4153 225.068 29.07 225.525 28.818C225.992 28.566 226.524 28.44 227.121 28.44ZM227.121 29.406C226.739 29.406 226.398 29.49 226.099 29.658C225.801 29.826 225.563 30.0547 225.385 30.344C225.217 30.6333 225.133 30.9693 225.133 31.352C225.133 31.7347 225.217 32.0753 225.385 32.374C225.563 32.6633 225.801 32.892 226.099 33.06C226.398 33.2187 226.739 33.298 227.121 33.298C227.495 33.298 227.831 33.2187 228.129 33.06C228.428 32.892 228.661 32.6633 228.829 32.374C229.007 32.0753 229.095 31.7347 229.095 31.352C229.095 30.9693 229.007 30.6333 228.829 30.344C228.661 30.0547 228.428 29.826 228.129 29.658C227.831 29.49 227.495 29.406 227.121 29.406ZM226.519 24.576H227.681V26.872H226.519V24.576ZM241.26 28.958H243.696V29.924H241.26V28.958ZM238.908 25.612H239.818V28.034C239.818 28.6873 239.748 29.3313 239.608 29.966C239.478 30.6007 239.282 31.198 239.02 31.758C238.768 32.318 238.46 32.822 238.096 33.27C237.732 33.718 237.322 34.082 236.864 34.362L236.136 33.494C236.566 33.2327 236.953 32.906 237.298 32.514C237.644 32.122 237.933 31.6833 238.166 31.198C238.409 30.7033 238.591 30.19 238.712 29.658C238.843 29.1167 238.908 28.5753 238.908 28.034V25.612ZM239.132 25.612H240.028V27.992C240.028 28.496 240.084 29.0047 240.196 29.518C240.318 30.022 240.486 30.5073 240.7 30.974C240.924 31.4313 241.2 31.8513 241.526 32.234C241.853 32.6167 242.222 32.934 242.632 33.186L241.974 34.082C241.517 33.802 241.111 33.4473 240.756 33.018C240.402 32.5793 240.103 32.0893 239.86 31.548C239.618 30.9973 239.436 30.4187 239.314 29.812C239.193 29.2053 239.132 28.5987 239.132 27.992V25.612ZM245.922 24.422H247.042V37.092H245.922V24.422ZM243.346 24.688H244.438V36.448H243.346V24.688ZM251.969 30.946H253.117V34.726H251.969V30.946ZM256.645 30.946H257.807V34.726H256.645V30.946ZM249.155 34.502H260.635V35.468H249.155V34.502ZM254.867 25.22C255.763 25.22 256.556 25.3553 257.247 25.626C257.938 25.8967 258.479 26.2747 258.871 26.76C259.272 27.2453 259.473 27.8193 259.473 28.482C259.473 29.1353 259.272 29.7093 258.871 30.204C258.479 30.6893 257.938 31.0673 257.247 31.338C256.556 31.5993 255.763 31.73 254.867 31.73C253.98 31.73 253.187 31.5993 252.487 31.338C251.796 31.0673 251.255 30.6893 250.863 30.204C250.471 29.7093 250.275 29.1353 250.275 28.482C250.275 27.8193 250.471 27.2453 250.863 26.76C251.255 26.2747 251.796 25.8967 252.487 25.626C253.187 25.3553 253.98 25.22 254.867 25.22ZM254.867 26.144C254.195 26.144 253.598 26.242 253.075 26.438C252.552 26.634 252.142 26.9093 251.843 27.264C251.544 27.6093 251.395 28.0153 251.395 28.482C251.395 28.9487 251.544 29.3593 251.843 29.714C252.142 30.0593 252.552 30.33 253.075 30.526C253.598 30.722 254.195 30.82 254.867 30.82C255.548 30.82 256.15 30.722 256.673 30.526C257.196 30.33 257.606 30.0593 257.905 29.714C258.204 29.3593 258.353 28.9487 258.353 28.482C258.353 28.0153 258.204 27.6093 257.905 27.264C257.606 26.9093 257.196 26.634 256.673 26.438C256.15 26.242 255.548 26.144 254.867 26.144ZM263.28 36.182C263.028 36.182 262.809 36.0933 262.622 35.916C262.445 35.7293 262.356 35.496 262.356 35.216C262.356 34.9173 262.445 34.6793 262.622 34.502C262.809 34.3247 263.028 34.236 263.28 34.236C263.532 34.236 263.747 34.3247 263.924 34.502C264.111 34.6793 264.204 34.9173 264.204 35.216C264.204 35.496 264.111 35.7293 263.924 35.916C263.747 36.0933 263.532 36.182 263.28 36.182Z" fill="black"/>
<path d="M22.5011 57.774C22.1931 57.774 21.9038 57.6947 21.6331 57.536C21.3718 57.3773 21.1571 57.158 20.9891 56.878C20.8304 56.5887 20.7511 56.2573 20.7511 55.884C20.7511 55.5107 20.8304 55.184 20.9891 54.904C21.1571 54.6147 21.3718 54.3907 21.6331 54.232C21.9038 54.0733 22.1931 53.994 22.5011 53.994C22.8091 53.994 23.0938 54.0733 23.3551 54.232C23.6258 54.3907 23.8404 54.6147 23.9991 54.904C24.1671 55.184 24.2511 55.5107 24.2511 55.884C24.2511 56.2573 24.1671 56.5887 23.9991 56.878C23.8404 57.158 23.6258 57.3773 23.3551 57.536C23.0938 57.6947 22.8091 57.774 22.5011 57.774ZM33.686 54.89H45.166V55.842H33.686V54.89ZM38.922 55.492H40.084V58.404H38.922V55.492ZM35.17 49.024H43.668V53.462H35.17V49.024ZM42.534 49.948H36.304V52.538H42.534V49.948ZM35.142 59.86H43.892V60.812H35.142V59.86ZM35.142 57.186H36.304V60.182H35.142V57.186ZM56.2109 48.422H57.3169V61.092H56.2109V48.422ZM51.5909 52.972H54.0269V53.924H51.5909V52.972ZM53.6769 48.716H54.7689V60.434H53.6769V48.716ZM49.1689 50.396H50.0649V52.006C50.0649 52.6967 49.9996 53.3733 49.8689 54.036C49.7382 54.6893 49.5469 55.3053 49.2949 55.884C49.0429 56.4533 48.7349 56.9713 48.3709 57.438C48.0069 57.8953 47.5962 58.2687 47.1389 58.558L46.4249 57.69C47.0129 57.3353 47.5076 56.8593 47.9089 56.262C48.3196 55.6647 48.6322 54.9973 48.8469 54.26C49.0616 53.5227 49.1689 52.7713 49.1689 52.006V50.396ZM49.4069 50.396H50.2889V52.006C50.2889 52.734 50.3916 53.448 50.5969 54.148C50.8116 54.848 51.1149 55.4827 51.5069 56.052C51.9082 56.612 52.3982 57.06 52.9769 57.396L52.2769 58.264C51.6609 57.8813 51.1382 57.3727 50.7089 56.738C50.2889 56.094 49.9669 55.366 49.7429 54.554C49.5189 53.7327 49.4069 52.8833 49.4069 52.006V50.396ZM46.7749 49.906H52.5569V50.858H46.7749V49.906ZM68.0258 48.422H69.1878V61.078H68.0258V48.422ZM68.8798 53.56H71.2038V54.526H68.8798V53.56ZM64.7918 49.78H65.9258C65.9258 50.984 65.7298 52.1367 65.3378 53.238C64.9458 54.33 64.3298 55.3427 63.4898 56.276C62.6498 57.2 61.5438 58.0027 60.1718 58.684L59.5278 57.788C60.7038 57.2 61.6791 56.514 62.4538 55.73C63.2378 54.9367 63.8211 54.0593 64.2038 53.098C64.5958 52.1273 64.7918 51.082 64.7918 49.962V49.78ZM60.1158 49.78H65.3798V50.746H60.1158V49.78ZM85.0996 48.422H86.2056V61.092H85.0996V48.422ZM80.4796 52.972H82.9156V53.924H80.4796V52.972ZM82.5656 48.716H83.6576V60.434H82.5656V48.716ZM78.0576 50.396H78.9536V52.006C78.9536 52.6967 78.8882 53.3733 78.7576 54.036C78.6269 54.6893 78.4356 55.3053 78.1836 55.884C77.9316 56.4533 77.6236 56.9713 77.2596 57.438C76.8956 57.8953 76.4849 58.2687 76.0276 58.558L75.3136 57.69C75.9016 57.3353 76.3962 56.8593 76.7976 56.262C77.2082 55.6647 77.5209 54.9973 77.7356 54.26C77.9502 53.5227 78.0576 52.7713 78.0576 52.006V50.396ZM78.2956 50.396H79.1776V52.006C79.1776 52.734 79.2802 53.448 79.4856 54.148C79.7002 54.848 80.0036 55.4827 80.3956 56.052C80.7969 56.612 81.2869 57.06 81.8656 57.396L81.1656 58.264C80.5496 57.8813 80.0269 57.3727 79.5976 56.738C79.1776 56.094 78.8556 55.366 78.6316 54.554C78.4076 53.7327 78.2956 52.8833 78.2956 52.006V50.396ZM75.6636 49.906H81.4456V50.858H75.6636V49.906ZM97.9785 48.422H99.0845V61.092H97.9785V48.422ZM95.8365 53.504H98.2725V54.456H95.8365V53.504ZM95.1085 48.702H96.1865V60.434H95.1085V48.702ZM88.7945 56.99H89.6205C90.2458 56.99 90.8105 56.9853 91.3145 56.976C91.8278 56.9573 92.3132 56.92 92.7705 56.864C93.2372 56.808 93.7132 56.7287 94.1985 56.626L94.3105 57.592C93.8065 57.6947 93.3165 57.774 92.8405 57.83C92.3738 57.886 91.8792 57.9233 91.3565 57.942C90.8432 57.9607 90.2645 57.97 89.6205 57.97H88.7945V56.99ZM88.7945 49.962H93.4985V50.914H89.9565V57.438H88.7945V49.962ZM101.225 58.558H112.705V59.524H101.225V58.558ZM106.363 55.856H107.511V58.964H106.363V55.856ZM102.625 49.36H111.277V53.196H103.801V55.73H102.653V52.272H110.129V50.312H102.625V49.36ZM102.653 55.24H111.571V56.192H102.653V55.24ZM119.881 49.22H120.805V50.914C120.805 51.5393 120.688 52.16 120.455 52.776C120.222 53.392 119.886 53.9473 119.447 54.442C119.018 54.9367 118.49 55.324 117.865 55.604L117.235 54.708C117.786 54.4653 118.257 54.1387 118.649 53.728C119.05 53.308 119.354 52.8507 119.559 52.356C119.774 51.8613 119.881 51.3807 119.881 50.914V49.22ZM120.077 49.22H121.001V50.914C121.001 51.3713 121.099 51.8287 121.295 52.286C121.5 52.734 121.794 53.14 122.177 53.504C122.569 53.8587 123.031 54.1433 123.563 54.358L122.947 55.254C122.34 55.0113 121.822 54.666 121.393 54.218C120.964 53.77 120.637 53.2613 120.413 52.692C120.189 52.1227 120.077 51.53 120.077 50.914V49.22ZM126.797 48.436H127.903V56.248H126.797V48.436ZM124.781 51.824H127.161V52.776H124.781V51.824ZM124.081 48.674H125.173V55.842H124.081V48.674ZM123.745 56.528C124.613 56.528 125.36 56.6167 125.985 56.794C126.62 56.9713 127.11 57.2327 127.455 57.578C127.8 57.914 127.973 58.32 127.973 58.796C127.973 59.272 127.8 59.678 127.455 60.014C127.11 60.3593 126.62 60.6207 125.985 60.798C125.36 60.9753 124.613 61.064 123.745 61.064C122.877 61.064 122.126 60.9753 121.491 60.798C120.856 60.6207 120.366 60.3593 120.021 60.014C119.685 59.678 119.517 59.272 119.517 58.796C119.517 58.32 119.685 57.914 120.021 57.578C120.366 57.2327 120.856 56.9713 121.491 56.794C122.126 56.6167 122.877 56.528 123.745 56.528ZM123.745 57.424C122.793 57.424 122.042 57.5453 121.491 57.788C120.94 58.0307 120.665 58.3667 120.665 58.796C120.665 59.2253 120.94 59.5613 121.491 59.804C122.042 60.0467 122.793 60.168 123.745 60.168C124.38 60.168 124.926 60.112 125.383 60C125.84 59.8973 126.19 59.7433 126.433 59.538C126.685 59.3327 126.811 59.0853 126.811 58.796C126.811 58.3667 126.536 58.0307 125.985 57.788C125.444 57.5453 124.697 57.424 123.745 57.424ZM133.306 49.136H134.272V50.438C134.272 51.2593 134.123 52.0153 133.824 52.706C133.535 53.3967 133.124 54.0033 132.592 54.526C132.069 55.0393 131.444 55.4313 130.716 55.702L130.1 54.764C130.753 54.5307 131.318 54.1993 131.794 53.77C132.27 53.3407 132.639 52.8413 132.9 52.272C133.171 51.6933 133.306 51.082 133.306 50.438V49.136ZM133.516 49.136H134.454V50.396C134.454 50.9933 134.585 51.558 134.846 52.09C135.107 52.622 135.467 53.0933 135.924 53.504C136.391 53.9053 136.932 54.2087 137.548 54.414L136.918 55.324C136.237 55.0627 135.639 54.694 135.126 54.218C134.613 53.742 134.216 53.1773 133.936 52.524C133.656 51.8707 133.516 51.1613 133.516 50.396V49.136ZM139.368 48.422H140.53V55.912H139.368V48.422ZM136.358 56.29C137.665 56.29 138.691 56.5 139.438 56.92C140.194 57.34 140.572 57.928 140.572 58.684C140.572 59.4307 140.194 60.014 139.438 60.434C138.691 60.854 137.665 61.064 136.358 61.064C135.051 61.064 134.02 60.854 133.264 60.434C132.517 60.014 132.144 59.4307 132.144 58.684C132.144 57.928 132.517 57.34 133.264 56.92C134.02 56.5 135.051 56.29 136.358 56.29ZM136.358 57.214C135.723 57.214 135.177 57.2747 134.72 57.396C134.263 57.508 133.908 57.676 133.656 57.9C133.413 58.1147 133.292 58.376 133.292 58.684C133.292 58.9827 133.413 59.244 133.656 59.468C133.908 59.6827 134.263 59.8507 134.72 59.972C135.177 60.084 135.723 60.14 136.358 60.14C137.002 60.14 137.548 60.084 137.996 59.972C138.453 59.8507 138.803 59.6827 139.046 59.468C139.298 59.244 139.424 58.9827 139.424 58.684C139.424 58.376 139.298 58.1147 139.046 57.9C138.803 57.676 138.453 57.508 137.996 57.396C137.548 57.2747 137.002 57.214 136.358 57.214ZM136.61 51.096H139.606V52.062H136.61V51.096ZM152.191 48.422H153.353V61.106H152.191V48.422ZM146.675 49.402C147.3 49.402 147.851 49.584 148.327 49.948C148.812 50.3027 149.19 50.8113 149.461 51.474C149.741 52.1367 149.881 52.916 149.881 53.812C149.881 54.708 149.741 55.4873 149.461 56.15C149.19 56.8127 148.812 57.326 148.327 57.69C147.851 58.054 147.3 58.236 146.675 58.236C146.05 58.236 145.494 58.054 145.009 57.69C144.524 57.326 144.141 56.8127 143.861 56.15C143.59 55.4873 143.455 54.708 143.455 53.812C143.455 52.916 143.59 52.1367 143.861 51.474C144.141 50.8113 144.524 50.3027 145.009 49.948C145.494 49.584 146.05 49.402 146.675 49.402ZM146.675 50.438C146.255 50.438 145.886 50.578 145.569 50.858C145.261 51.1287 145.018 51.5207 144.841 52.034C144.664 52.538 144.575 53.1307 144.575 53.812C144.575 54.4933 144.664 55.0907 144.841 55.604C145.018 56.108 145.261 56.5 145.569 56.78C145.886 57.06 146.255 57.2 146.675 57.2C147.086 57.2 147.445 57.06 147.753 56.78C148.07 56.5 148.318 56.108 148.495 55.604C148.672 55.0907 148.761 54.4933 148.761 53.812C148.761 53.1307 148.672 52.538 148.495 52.034C148.318 51.5207 148.07 51.1287 147.753 50.858C147.445 50.578 147.086 50.438 146.675 50.438ZM161.803 52.888H162.909V55.478H161.803V52.888ZM159.073 55.8L158.933 54.862C159.353 54.862 159.829 54.862 160.361 54.862C160.893 54.8527 161.448 54.8387 162.027 54.82C162.605 54.792 163.179 54.7593 163.749 54.722C164.318 54.6753 164.85 54.6193 165.345 54.554L165.415 55.38C164.733 55.5013 164.005 55.5947 163.231 55.66C162.465 55.716 161.719 55.7533 160.991 55.772C160.263 55.7907 159.623 55.8 159.073 55.8ZM168.537 48.422H169.657V56.234H168.537V48.422ZM166.717 51.964H168.901V52.916H166.717V51.964ZM165.961 48.66H167.053V56.15H165.961V48.66ZM159.703 52.356H164.967V53.308H159.703V52.356ZM159.703 49.22H164.897V50.172H160.837V52.776H159.703V49.22ZM162.237 56.766H163.119V57.102C163.119 57.662 163.007 58.1987 162.783 58.712C162.559 59.216 162.232 59.664 161.803 60.056C161.373 60.448 160.851 60.7467 160.235 60.952L159.675 60.084C160.216 59.916 160.678 59.678 161.061 59.37C161.443 59.062 161.733 58.712 161.929 58.32C162.134 57.9187 162.237 57.5127 162.237 57.102V56.766ZM162.489 56.766H163.357V57.102C163.357 57.4847 163.436 57.8813 163.595 58.292C163.763 58.6933 164.015 59.062 164.351 59.398C164.687 59.734 165.102 60.0047 165.597 60.21L165.121 61.064C164.514 60.8307 164.015 60.504 163.623 60.084C163.24 59.664 162.955 59.1927 162.769 58.67C162.582 58.1473 162.489 57.6247 162.489 57.102V56.766ZM166.899 56.766H167.739V57.102C167.739 57.6153 167.645 58.1333 167.459 58.656C167.272 59.1787 166.987 59.65 166.605 60.07C166.222 60.4993 165.727 60.8307 165.121 61.064L164.645 60.21C165.139 59.9953 165.555 59.72 165.891 59.384C166.227 59.0387 166.479 58.67 166.647 58.278C166.815 57.8767 166.899 57.4847 166.899 57.102V56.766ZM167.123 56.766H168.019V57.102C168.019 57.522 168.121 57.9327 168.327 58.334C168.532 58.726 168.821 59.076 169.195 59.384C169.577 59.692 170.035 59.9253 170.567 60.084L170.021 60.952C169.405 60.7467 168.882 60.448 168.453 60.056C168.023 59.6733 167.692 59.23 167.459 58.726C167.235 58.2127 167.123 57.6713 167.123 57.102V56.766ZM173.422 52.23H182.032V53.168H173.422V52.23ZM171.868 54.862H183.348V55.814H171.868V54.862ZM173.422 48.884H174.57V52.706H173.422V48.884ZM173.338 59.832H182.102V60.784H173.338V59.832ZM173.338 57.088H174.5V60.084H173.338V57.088ZM188.107 50.242H189.059V52.286C189.059 52.958 188.965 53.6207 188.779 54.274C188.592 54.918 188.331 55.5293 187.995 56.108C187.668 56.6773 187.285 57.1813 186.847 57.62C186.408 58.0587 185.937 58.404 185.433 58.656L184.761 57.732C185.218 57.508 185.647 57.2047 186.049 56.822C186.459 56.4393 186.819 56.0007 187.127 55.506C187.435 55.0113 187.673 54.4887 187.841 53.938C188.018 53.3873 188.107 52.8367 188.107 52.286V50.242ZM188.345 50.242H189.283V52.286C189.283 52.818 189.367 53.35 189.535 53.882C189.712 54.4047 189.955 54.8993 190.263 55.366C190.58 55.8233 190.939 56.2293 191.341 56.584C191.751 56.9387 192.19 57.2187 192.657 57.424L192.013 58.348C191.499 58.1053 191.019 57.7787 190.571 57.368C190.123 56.9573 189.731 56.486 189.395 55.954C189.068 55.4127 188.811 54.834 188.625 54.218C188.438 53.5927 188.345 52.9487 188.345 52.286V50.242ZM185.167 49.724H192.237V50.69H185.167V49.724ZM193.959 48.422H195.121V61.092H193.959V48.422ZM204.088 54.372H205.236V55.982H204.088V54.372ZM209.422 48.436H210.584V56.92H209.422V48.436ZM210.094 52.258H212.432V53.224H210.094V52.258ZM200.84 56.556L200.7 55.618C201.456 55.618 202.282 55.6133 203.178 55.604C204.084 55.5853 205.008 55.548 205.95 55.492C206.893 55.436 207.798 55.3473 208.666 55.226L208.75 56.052C207.854 56.2107 206.935 56.3273 205.992 56.402C205.059 56.4673 204.149 56.5093 203.262 56.528C202.385 56.5467 201.578 56.556 200.84 56.556ZM202.254 57.564H210.584V61.092H209.422V58.488H202.254V57.564ZM201.022 49.57H208.288V50.452H201.022V49.57ZM204.648 50.928C205.544 50.928 206.258 51.096 206.79 51.432C207.332 51.768 207.602 52.2253 207.602 52.804C207.602 53.3827 207.332 53.84 206.79 54.176C206.258 54.512 205.544 54.68 204.648 54.68C203.762 54.68 203.048 54.512 202.506 54.176C201.965 53.84 201.694 53.3827 201.694 52.804C201.694 52.2253 201.965 51.768 202.506 51.432C203.048 51.096 203.762 50.928 204.648 50.928ZM204.648 51.74C204.088 51.74 203.64 51.8333 203.304 52.02C202.968 52.2067 202.8 52.468 202.8 52.804C202.8 53.1213 202.968 53.3827 203.304 53.588C203.64 53.784 204.088 53.882 204.648 53.882C205.208 53.882 205.656 53.784 205.992 53.588C206.328 53.3827 206.496 53.1213 206.496 52.804C206.496 52.468 206.328 52.2067 205.992 52.02C205.656 51.8333 205.208 51.74 204.648 51.74ZM204.088 48.324H205.236V50.004H204.088V48.324ZM222.861 48.436H224.023V57.676H222.861V48.436ZM215.889 59.86H224.415V60.812H215.889V59.86ZM215.889 56.738H217.051V60.182H215.889V56.738ZM217.233 49.318C217.868 49.318 218.433 49.4487 218.927 49.71C219.422 49.9713 219.814 50.34 220.103 50.816C220.393 51.2827 220.537 51.8193 220.537 52.426C220.537 53.0327 220.393 53.574 220.103 54.05C219.814 54.5167 219.422 54.8853 218.927 55.156C218.433 55.4173 217.868 55.548 217.233 55.548C216.608 55.548 216.043 55.4173 215.539 55.156C215.045 54.8853 214.653 54.5167 214.363 54.05C214.074 53.574 213.929 53.0327 213.929 52.426C213.929 51.8193 214.074 51.2827 214.363 50.816C214.653 50.34 215.045 49.9713 215.539 49.71C216.043 49.4487 216.608 49.318 217.233 49.318ZM217.233 50.326C216.823 50.326 216.454 50.4147 216.127 50.592C215.801 50.7693 215.539 51.0167 215.343 51.334C215.157 51.6513 215.063 52.0153 215.063 52.426C215.063 52.846 215.157 53.2147 215.343 53.532C215.539 53.84 215.801 54.0827 216.127 54.26C216.454 54.4373 216.823 54.526 217.233 54.526C217.644 54.526 218.013 54.4373 218.339 54.26C218.675 54.0827 218.937 53.84 219.123 53.532C219.31 53.2147 219.403 52.846 219.403 52.426C219.403 52.0153 219.31 51.6513 219.123 51.334C218.937 51.0167 218.675 50.7693 218.339 50.592C218.013 50.4147 217.644 50.326 217.233 50.326ZM235.11 48.422H236.258V61.092H235.11V48.422ZM235.992 53.63H238.33V54.61H235.992V53.63ZM226.458 50.452H233.92V51.404H226.458V50.452ZM230.252 52.44C230.849 52.44 231.377 52.566 231.834 52.818C232.301 53.07 232.665 53.4153 232.926 53.854C233.197 54.2833 233.332 54.7827 233.332 55.352C233.332 55.9213 233.197 56.4253 232.926 56.864C232.665 57.3027 232.301 57.648 231.834 57.9C231.377 58.1427 230.849 58.264 230.252 58.264C229.655 58.264 229.123 58.1427 228.656 57.9C228.199 57.648 227.835 57.3027 227.564 56.864C227.293 56.4253 227.158 55.9213 227.158 55.352C227.158 54.7827 227.293 54.2833 227.564 53.854C227.835 53.4153 228.199 53.07 228.656 52.818C229.123 52.566 229.655 52.44 230.252 52.44ZM230.252 53.406C229.869 53.406 229.529 53.49 229.23 53.658C228.931 53.826 228.693 54.0547 228.516 54.344C228.348 54.6333 228.264 54.9693 228.264 55.352C228.264 55.7347 228.348 56.0753 228.516 56.374C228.693 56.6633 228.931 56.892 229.23 57.06C229.529 57.2187 229.869 57.298 230.252 57.298C230.625 57.298 230.961 57.2187 231.26 57.06C231.559 56.892 231.792 56.6633 231.96 56.374C232.137 56.0753 232.226 55.7347 232.226 55.352C232.226 54.9693 232.137 54.6333 231.96 54.344C231.792 54.0547 231.559 53.826 231.26 53.658C230.961 53.49 230.625 53.406 230.252 53.406ZM229.65 48.576H230.812V50.872H229.65V48.576ZM244.391 52.958H246.827V53.924H244.391V52.958ZM242.039 49.612H242.949V52.034C242.949 52.6873 242.879 53.3313 242.739 53.966C242.608 54.6007 242.412 55.198 242.151 55.758C241.899 56.318 241.591 56.822 241.227 57.27C240.863 57.718 240.452 58.082 239.995 58.362L239.267 57.494C239.696 57.2327 240.084 56.906 240.429 56.514C240.774 56.122 241.064 55.6833 241.297 55.198C241.54 54.7033 241.722 54.19 241.843 53.658C241.974 53.1167 242.039 52.5753 242.039 52.034V49.612ZM242.263 49.612H243.159V51.992C243.159 52.496 243.215 53.0047 243.327 53.518C243.448 54.022 243.616 54.5073 243.831 54.974C244.055 55.4313 244.33 55.8513 244.657 56.234C244.984 56.6167 245.352 56.934 245.763 57.186L245.105 58.082C244.648 57.802 244.242 57.4473 243.887 57.018C243.532 56.5793 243.234 56.0893 242.991 55.548C242.748 54.9973 242.566 54.4187 242.445 53.812C242.324 53.2053 242.263 52.5987 242.263 51.992V49.612ZM249.053 48.422H250.173V61.092H249.053V48.422ZM246.477 48.688H247.569V60.448H246.477V48.688ZM255.1 54.946H256.248V58.726H255.1V54.946ZM259.776 54.946H260.938V58.726H259.776V54.946ZM252.286 58.502H263.766V59.468H252.286V58.502ZM257.998 49.22C258.894 49.22 259.687 49.3553 260.378 49.626C261.069 49.8967 261.61 50.2747 262.002 50.76C262.403 51.2453 262.604 51.8193 262.604 52.482C262.604 53.1353 262.403 53.7093 262.002 54.204C261.61 54.6893 261.069 55.0673 260.378 55.338C259.687 55.5993 258.894 55.73 257.998 55.73C257.111 55.73 256.318 55.5993 255.618 55.338C254.927 55.0673 254.386 54.6893 253.994 54.204C253.602 53.7093 253.406 53.1353 253.406 52.482C253.406 51.8193 253.602 51.2453 253.994 50.76C254.386 50.2747 254.927 49.8967 255.618 49.626C256.318 49.3553 257.111 49.22 257.998 49.22ZM257.998 50.144C257.326 50.144 256.729 50.242 256.206 50.438C255.683 50.634 255.273 50.9093 254.974 51.264C254.675 51.6093 254.526 52.0153 254.526 52.482C254.526 52.9487 254.675 53.3593 254.974 53.714C255.273 54.0593 255.683 54.33 256.206 54.526C256.729 54.722 257.326 54.82 257.998 54.82C258.679 54.82 259.281 54.722 259.804 54.526C260.327 54.33 260.737 54.0593 261.036 53.714C261.335 53.3593 261.484 52.9487 261.484 52.482C261.484 52.0153 261.335 51.6093 261.036 51.264C260.737 50.9093 260.327 50.634 259.804 50.438C259.281 50.242 258.679 50.144 257.998 50.144ZM266.411 60.182C266.159 60.182 265.94 60.0933 265.753 59.916C265.576 59.7293 265.487 59.496 265.487 59.216C265.487 58.9173 265.576 58.6793 265.753 58.502C265.94 58.3247 266.159 58.236 266.411 58.236C266.663 58.236 266.878 58.3247 267.055 58.502C267.242 58.6793 267.335 58.9173 267.335 59.216C267.335 59.496 267.242 59.7293 267.055 59.916C266.878 60.0933 266.663 60.182 266.411 60.182Z" fill="black"/>
<path d="M22.5011 81.774C22.1931 81.774 21.9038 81.6947 21.6331 81.536C21.3718 81.3773 21.1571 81.158 20.9891 80.878C20.8304 80.5887 20.7511 80.2573 20.7511 79.884C20.7511 79.5107 20.8304 79.184 20.9891 78.904C21.1571 78.6147 21.3718 78.3907 21.6331 78.232C21.9038 78.0733 22.1931 77.994 22.5011 77.994C22.8091 77.994 23.0938 78.0733 23.3551 78.232C23.6258 78.3907 23.8404 78.6147 23.9991 78.904C24.1671 79.184 24.2511 79.5107 24.2511 79.884C24.2511 80.2573 24.1671 80.5887 23.9991 80.878C23.8404 81.158 23.6258 81.3773 23.3551 81.536C23.0938 81.6947 22.8091 81.774 22.5011 81.774ZM33.686 78.89H45.166V79.842H33.686V78.89ZM38.922 79.492H40.084V82.404H38.922V79.492ZM35.17 73.024H43.668V77.462H35.17V73.024ZM42.534 73.948H36.304V76.538H42.534V73.948ZM35.142 83.86H43.892V84.812H35.142V83.86ZM35.142 81.186H36.304V84.182H35.142V81.186ZM55.2449 72.422H56.4069V80.584H55.2449V72.422ZM56.0849 75.936H58.2689V76.916H56.0849V75.936ZM52.4309 80.682C53.2802 80.682 54.0129 80.7707 54.6289 80.948C55.2449 81.116 55.7162 81.3633 56.0429 81.69C56.3789 82.0167 56.5469 82.4133 56.5469 82.88C56.5469 83.3373 56.3789 83.7293 56.0429 84.056C55.7162 84.3827 55.2449 84.63 54.6289 84.798C54.0129 84.9753 53.2802 85.064 52.4309 85.064C51.5722 85.064 50.8349 84.9753 50.2189 84.798C49.6122 84.63 49.1409 84.3827 48.8049 84.056C48.4689 83.7293 48.3009 83.3373 48.3009 82.88C48.3009 82.4133 48.4689 82.0167 48.8049 81.69C49.1409 81.3633 49.6122 81.116 50.2189 80.948C50.8349 80.7707 51.5722 80.682 52.4309 80.682ZM52.4309 81.592C51.4976 81.592 50.7649 81.704 50.2329 81.928C49.7102 82.152 49.4489 82.4693 49.4489 82.88C49.4489 83.2907 49.7102 83.608 50.2329 83.832C50.7649 84.056 51.4976 84.168 52.4309 84.168C53.3549 84.168 54.0782 84.056 54.6009 83.832C55.1329 83.608 55.3989 83.2907 55.3989 82.88C55.3989 82.4693 55.1329 82.152 54.6009 81.928C54.0782 81.704 53.3549 81.592 52.4309 81.592ZM46.6069 73.85H54.0829V74.774H46.6069V73.85ZM50.3449 75.418C50.9516 75.418 51.4789 75.5113 51.9269 75.698C52.3842 75.8847 52.7389 76.146 52.9909 76.482C53.2429 76.8087 53.3689 77.2007 53.3689 77.658C53.3689 78.106 53.2429 78.498 52.9909 78.834C52.7389 79.17 52.3842 79.4313 51.9269 79.618C51.4789 79.7953 50.9516 79.884 50.3449 79.884C49.7382 79.884 49.2062 79.7953 48.7489 79.618C48.3009 79.4313 47.9462 79.17 47.6849 78.834C47.4329 78.498 47.3069 78.106 47.3069 77.658C47.3069 77.2007 47.4329 76.8087 47.6849 76.482C47.9462 76.146 48.3009 75.8847 48.7489 75.698C49.2062 75.5113 49.7382 75.418 50.3449 75.418ZM50.3449 76.3C49.7662 76.3 49.2996 76.426 48.9449 76.678C48.5996 76.9207 48.4269 77.2473 48.4269 77.658C48.4269 78.0687 48.5996 78.3953 48.9449 78.638C49.2996 78.8807 49.7662 79.002 50.3449 79.002C50.9142 79.002 51.3762 78.8807 51.7309 78.638C52.0856 78.3953 52.2629 78.0687 52.2629 77.658C52.2629 77.2473 52.0856 76.9207 51.7309 76.678C51.3762 76.426 50.9142 76.3 50.3449 76.3ZM49.7709 72.324H50.9329V74.368H49.7709V72.324ZM64.5958 77.35H66.9758V78.302H64.5958V77.35ZM69.1038 72.422H70.2238V85.092H69.1038V72.422ZM66.5838 72.688H67.6898V84.448H66.5838V72.688ZM62.2998 73.486C62.8505 73.486 63.3265 73.6633 63.7278 74.018C64.1385 74.3727 64.4558 74.8813 64.6798 75.544C64.9038 76.2067 65.0158 76.986 65.0158 77.882C65.0158 78.7873 64.9038 79.5713 64.6798 80.234C64.4558 80.8967 64.1385 81.41 63.7278 81.774C63.3265 82.1287 62.8505 82.306 62.2998 82.306C61.7678 82.306 61.2965 82.1287 60.8858 81.774C60.4845 81.41 60.1718 80.8967 59.9478 80.234C59.7238 79.5713 59.6118 78.7873 59.6118 77.882C59.6118 76.986 59.7238 76.2067 59.9478 75.544C60.1718 74.8813 60.4845 74.3727 60.8858 74.018C61.2965 73.6633 61.7678 73.486 62.2998 73.486ZM62.2998 74.564C61.9731 74.564 61.6885 74.6993 61.4458 74.97C61.2031 75.2407 61.0165 75.6233 60.8858 76.118C60.7551 76.6127 60.6898 77.2007 60.6898 77.882C60.6898 78.5633 60.7551 79.156 60.8858 79.66C61.0165 80.1547 61.2031 80.5373 61.4458 80.808C61.6885 81.0787 61.9731 81.214 62.2998 81.214C62.6358 81.214 62.9251 81.0787 63.1678 80.808C63.4198 80.5373 63.6111 80.1547 63.7418 79.66C63.8725 79.156 63.9378 78.5633 63.9378 77.882C63.9378 77.2007 63.8725 76.6127 63.7418 76.118C63.6111 75.6233 63.4198 75.2407 63.1678 74.97C62.9251 74.6993 62.6358 74.564 62.2998 74.564ZM84.2456 72.408H85.4076V85.092H84.2456V72.408ZM84.8896 77.392H87.2276V78.372H84.8896V77.392ZM75.8316 80.808H76.3916C76.7556 80.808 77.1709 80.794 77.6376 80.766C78.1136 80.738 78.6222 80.6633 79.1636 80.542L79.2756 81.508C78.6969 81.6293 78.1696 81.704 77.6936 81.732C77.2176 81.76 76.7836 81.774 76.3916 81.774H75.8316V80.808ZM75.8316 73.752H79.0376V74.704H76.9936V81.27H75.8316V73.752ZM79.7516 80.808H80.3536C80.7736 80.808 81.1562 80.8033 81.5016 80.794C81.8469 80.7753 82.1782 80.7473 82.4956 80.71C82.8222 80.6633 83.1536 80.598 83.4896 80.514L83.6016 81.48C83.2469 81.564 82.9062 81.6293 82.5796 81.676C82.2529 81.7133 81.9076 81.7413 81.5436 81.76C81.1889 81.7693 80.7922 81.774 80.3536 81.774H79.7516V80.808ZM79.7516 73.752H83.0976V74.704H80.8856V81.284H79.7516V73.752ZM96.9285 72.422H98.0765V85.106H96.9285V72.422ZM97.8105 77.448H100.148V78.428H97.8105V77.448ZM88.8645 81.074H89.8725C90.6565 81.074 91.3752 81.0647 92.0285 81.046C92.6912 81.018 93.3305 80.976 93.9465 80.92C94.5625 80.8547 95.1878 80.7613 95.8225 80.64L95.9345 81.592C95.2812 81.7133 94.6418 81.8067 94.0165 81.872C93.4005 81.9373 92.7565 81.984 92.0845 82.012C91.4125 82.04 90.6752 82.054 89.8725 82.054H88.8645V81.074ZM88.8365 73.598H94.5485V78.148H90.0125V81.466H88.8645V77.182H93.4005V74.55H88.8365V73.598ZM104.958 73.346H106.12V78.694H104.958V73.346ZM104.958 78.316H105.966C106.881 78.316 107.814 78.2787 108.766 78.204C109.718 78.1293 110.712 77.9847 111.748 77.77L111.888 78.736C110.824 78.9507 109.807 79.1 108.836 79.184C107.866 79.2587 106.909 79.296 105.966 79.296H104.958V78.316ZM113.022 72.436H114.184V81.578H113.022V72.436ZM113.82 76.174H116.046V77.168H113.82V76.174ZM106.33 83.86H114.632V84.812H106.33V83.86ZM106.33 80.696H107.492V84.308H106.33V80.696ZM126.433 72.422H127.595V85.106H126.433V72.422ZM120.917 73.402C121.542 73.402 122.093 73.584 122.569 73.948C123.054 74.3027 123.432 74.8113 123.703 75.474C123.983 76.1367 124.123 76.916 124.123 77.812C124.123 78.708 123.983 79.4873 123.703 80.15C123.432 80.8127 123.054 81.326 122.569 81.69C122.093 82.054 121.542 82.236 120.917 82.236C120.292 82.236 119.736 82.054 119.251 81.69C118.766 81.326 118.383 80.8127 118.103 80.15C117.832 79.4873 117.697 78.708 117.697 77.812C117.697 76.916 117.832 76.1367 118.103 75.474C118.383 74.8113 118.766 74.3027 119.251 73.948C119.736 73.584 120.292 73.402 120.917 73.402ZM120.917 74.438C120.497 74.438 120.128 74.578 119.811 74.858C119.503 75.1287 119.26 75.5207 119.083 76.034C118.906 76.538 118.817 77.1307 118.817 77.812C118.817 78.4933 118.906 79.0907 119.083 79.604C119.26 80.108 119.503 80.5 119.811 80.78C120.128 81.06 120.497 81.2 120.917 81.2C121.328 81.2 121.687 81.06 121.995 80.78C122.312 80.5 122.56 80.108 122.737 79.604C122.914 79.0907 123.003 78.4933 123.003 77.812C123.003 77.1307 122.914 76.538 122.737 76.034C122.56 75.5207 122.312 75.1287 121.995 74.858C121.687 74.578 121.328 74.438 120.917 74.438ZM131.57 78.344H140.264V79.282H131.57V78.344ZM130.114 82.53H141.594V83.496H130.114V82.53ZM135.252 78.75H136.4V82.908H135.252V78.75ZM131.57 73.43H140.138V74.396H132.732V78.764H131.57V73.43ZM151.561 72.422H152.723V85.078H151.561V72.422ZM152.415 77.56H154.739V78.526H152.415V77.56ZM148.327 73.78H149.461C149.461 74.984 149.265 76.1367 148.873 77.238C148.481 78.33 147.865 79.3427 147.025 80.276C146.185 81.2 145.079 82.0027 143.707 82.684L143.063 81.788C144.239 81.2 145.214 80.514 145.989 79.73C146.773 78.9367 147.356 78.0593 147.739 77.098C148.131 76.1273 148.327 75.082 148.327 73.962V73.78ZM143.651 73.78H148.915V74.746H143.651V73.78ZM167.571 72.422H168.733V85.106H167.571V72.422ZM168.467 77.42H170.805V78.386H168.467V77.42ZM159.549 80.962H160.543C161.317 80.962 162.027 80.9527 162.671 80.934C163.324 80.906 163.949 80.8593 164.547 80.794C165.153 80.7287 165.769 80.64 166.395 80.528L166.535 81.522C165.881 81.634 165.247 81.7227 164.631 81.788C164.024 81.8533 163.389 81.8953 162.727 81.914C162.064 81.9327 161.336 81.942 160.543 81.942H159.549V80.962ZM159.549 73.654H165.415V74.606H160.697V81.41H159.549V73.654ZM171.882 82.53H183.362V83.496H171.882V82.53ZM173.282 73.388H181.934V77.238H174.458V79.758H173.31V76.3H180.786V74.34H173.282V73.388ZM173.31 79.282H182.228V80.22H173.31V79.282ZM193.973 72.422H195.121V85.092H193.973V72.422ZM185.559 73.668H186.707V81.508H185.559V73.668ZM185.559 80.822H186.595C187.565 80.822 188.55 80.78 189.549 80.696C190.557 80.6027 191.593 80.4487 192.657 80.234L192.811 81.214C191.709 81.4473 190.65 81.6107 189.633 81.704C188.615 81.788 187.603 81.83 186.595 81.83H185.559V80.822ZM203.934 74.508H204.872V75.054C204.872 75.7727 204.723 76.44 204.424 77.056C204.135 77.672 203.724 78.204 203.192 78.652C202.66 79.1 202.04 79.4407 201.33 79.674L200.77 78.764C201.396 78.568 201.946 78.288 202.422 77.924C202.898 77.5507 203.267 77.1167 203.528 76.622C203.799 76.1273 203.934 75.6047 203.934 75.054V74.508ZM204.13 74.508H205.082V75.054C205.082 75.558 205.208 76.0433 205.46 76.51C205.722 76.9673 206.086 77.3733 206.552 77.728C207.019 78.0733 207.56 78.3393 208.176 78.526L207.63 79.436C206.93 79.212 206.314 78.8853 205.782 78.456C205.26 78.0267 204.854 77.5227 204.564 76.944C204.275 76.356 204.13 75.726 204.13 75.054V74.508ZM201.12 73.906H207.882V74.844H201.12V73.906ZM203.934 72.366H205.096V74.284H203.934V72.366ZM209.436 72.422H210.598V79.912H209.436V72.422ZM210.276 75.628H212.46V76.594H210.276V75.628ZM202.646 80.514H210.598V84.924H202.646V80.514ZM209.45 81.438H203.78V83.972H209.45V81.438ZM214.867 73.696H223.015V74.648H214.867V73.696ZM213.649 82.348H225.087V83.314H213.649V82.348ZM218.101 77.826H219.249V82.838H218.101V77.826ZM222.567 73.696H223.729V74.942C223.729 75.4647 223.72 76.0153 223.701 76.594C223.692 77.1727 223.655 77.8073 223.589 78.498C223.533 79.1887 223.426 79.9587 223.267 80.808L222.091 80.668C222.334 79.4547 222.474 78.3907 222.511 77.476C222.549 76.552 222.567 75.7073 222.567 74.942V73.696ZM235.11 72.422H236.258V85.092H235.11V72.422ZM235.992 77.63H238.33V78.61H235.992V77.63ZM226.458 74.452H233.92V75.404H226.458V74.452ZM230.252 76.44C230.849 76.44 231.377 76.566 231.834 76.818C232.301 77.07 232.665 77.4153 232.926 77.854C233.197 78.2833 233.332 78.7827 233.332 79.352C233.332 79.9213 233.197 80.4253 232.926 80.864C232.665 81.3027 232.301 81.648 231.834 81.9C231.377 82.1427 230.849 82.264 230.252 82.264C229.655 82.264 229.123 82.1427 228.656 81.9C228.199 81.648 227.835 81.3027 227.564 80.864C227.293 80.4253 227.158 79.9213 227.158 79.352C227.158 78.7827 227.293 78.2833 227.564 77.854C227.835 77.4153 228.199 77.07 228.656 76.818C229.123 76.566 229.655 76.44 230.252 76.44ZM230.252 77.406C229.869 77.406 229.529 77.49 229.23 77.658C228.931 77.826 228.693 78.0547 228.516 78.344C228.348 78.6333 228.264 78.9693 228.264 79.352C228.264 79.7347 228.348 80.0753 228.516 80.374C228.693 80.6633 228.931 80.892 229.23 81.06C229.529 81.2187 229.869 81.298 230.252 81.298C230.625 81.298 230.961 81.2187 231.26 81.06C231.559 80.892 231.792 80.6633 231.96 80.374C232.137 80.0753 232.226 79.7347 232.226 79.352C232.226 78.9693 232.137 78.6333 231.96 78.344C231.792 78.0547 231.559 77.826 231.26 77.658C230.961 77.49 230.625 77.406 230.252 77.406ZM229.65 72.576H230.812V74.872H229.65V72.576ZM244.391 76.958H246.827V77.924H244.391V76.958ZM242.039 73.612H242.949V76.034C242.949 76.6873 242.879 77.3313 242.739 77.966C242.608 78.6007 242.412 79.198 242.151 79.758C241.899 80.318 241.591 80.822 241.227 81.27C240.863 81.718 240.452 82.082 239.995 82.362L239.267 81.494C239.696 81.2327 240.084 80.906 240.429 80.514C240.774 80.122 241.064 79.6833 241.297 79.198C241.54 78.7033 241.722 78.19 241.843 77.658C241.974 77.1167 242.039 76.5753 242.039 76.034V73.612ZM242.263 73.612H243.159V75.992C243.159 76.496 243.215 77.0047 243.327 77.518C243.448 78.022 243.616 78.5073 243.831 78.974C244.055 79.4313 244.33 79.8513 244.657 80.234C244.984 80.6167 245.352 80.934 245.763 81.186L245.105 82.082C244.648 81.802 244.242 81.4473 243.887 81.018C243.532 80.5793 243.234 80.0893 242.991 79.548C242.748 78.9973 242.566 78.4187 242.445 77.812C242.324 77.2053 242.263 76.5987 242.263 75.992V73.612ZM249.053 72.422H250.173V85.092H249.053V72.422ZM246.477 72.688H247.569V84.448H246.477V72.688ZM255.1 78.946H256.248V82.726H255.1V78.946ZM259.776 78.946H260.938V82.726H259.776V78.946ZM252.286 82.502H263.766V83.468H252.286V82.502ZM257.998 73.22C258.894 73.22 259.687 73.3553 260.378 73.626C261.069 73.8967 261.61 74.2747 262.002 74.76C262.403 75.2453 262.604 75.8193 262.604 76.482C262.604 77.1353 262.403 77.7093 262.002 78.204C261.61 78.6893 261.069 79.0673 260.378 79.338C259.687 79.5993 258.894 79.73 257.998 79.73C257.111 79.73 256.318 79.5993 255.618 79.338C254.927 79.0673 254.386 78.6893 253.994 78.204C253.602 77.7093 253.406 77.1353 253.406 76.482C253.406 75.8193 253.602 75.2453 253.994 74.76C254.386 74.2747 254.927 73.8967 255.618 73.626C256.318 73.3553 257.111 73.22 257.998 73.22ZM257.998 74.144C257.326 74.144 256.729 74.242 256.206 74.438C255.683 74.634 255.273 74.9093 254.974 75.264C254.675 75.6093 254.526 76.0153 254.526 76.482C254.526 76.9487 254.675 77.3593 254.974 77.714C255.273 78.0593 255.683 78.33 256.206 78.526C256.729 78.722 257.326 78.82 257.998 78.82C258.679 78.82 259.281 78.722 259.804 78.526C260.327 78.33 260.737 78.0593 261.036 77.714C261.335 77.3593 261.484 76.9487 261.484 76.482C261.484 76.0153 261.335 75.6093 261.036 75.264C260.737 74.9093 260.327 74.634 259.804 74.438C259.281 74.242 258.679 74.144 257.998 74.144ZM266.411 84.182C266.159 84.182 265.94 84.0933 265.753 83.916C265.576 83.7293 265.487 83.496 265.487 83.216C265.487 82.9173 265.576 82.6793 265.753 82.502C265.94 82.3247 266.159 82.236 266.411 82.236C266.663 82.236 266.878 82.3247 267.055 82.502C267.242 82.6793 267.335 82.9173 267.335 83.216C267.335 83.496 267.242 83.7293 267.055 83.916C266.878 84.0933 266.663 84.182 266.411 84.182Z" fill="black"/>
</svg>
