<svg width="60" height="60" viewBox="0 0 60 60" fill="none" xmlns="http://www.w3.org/2000/svg">
<circle cx="30" cy="30" r="30" fill="#30A10E"/>
<path d="M35.0138 37.4949C36.2391 36.2015 38.1699 35.9743 39.3263 36.9878L43.4871 40.6349C44.6537 41.6577 44.5847 43.5503 43.3336 44.8423L43.3024 44.8743C42.1296 46.1417 40.2535 46.3742 39.1323 45.3916L34.8888 41.6721C33.7326 40.6585 33.7885 38.7884 35.0138 37.4949Z" fill="white"/>
<path d="M29.9623 14C38.6772 13.9807 45.9789 20.7986 46 29.4939C46.0042 31.2584 45.7013 32.9611 45.1424 34.5499C45.1354 34.621 45.1222 34.6903 45.0992 34.7568C44.7716 35.7059 42.9088 35.7882 40.9356 35.1578C38.9627 34.5275 37.6286 33.247 37.9559 32.298C37.968 32.2629 37.9828 32.2286 37.9991 32.1954L37.9935 32.1936C38.3037 31.358 38.4728 30.4567 38.4706 29.5113C38.4602 25.1955 34.7803 21.4888 29.9807 21.4994C25.1811 21.51 21.5191 25.233 21.5294 29.5489C21.5396 33.6379 25.3952 37.5491 30.0193 37.5389V37.6734C30.0607 37.6688 30.1023 37.6656 30.1443 37.6661C31.1838 37.6804 32.0023 39.3205 31.9724 41.3288C31.9425 43.3367 31.076 44.9532 30.0368 44.9393V45.0382C21.4849 45.0571 14.0205 38.0221 14 29.5653C13.9792 20.8699 21.2474 14.0195 29.9623 14Z" fill="white"/>
</svg>
