<svg width="24" height="24" viewBox="0 0 24 24" fill="none" xmlns="http://www.w3.org/2000/svg">
<path d="M23 12C23 5.92487 18.0751 1 12 1C5.92486 1 1 5.92487 1 12C1 18.0751 5.92486 23 12 23C18.0751 23 23 18.0751 23 12ZM7.01622 12.3081C6.72333 12.0152 6.69671 11.5569 6.93634 11.234L7.01622 11.1414L11.4171 6.74049C11.7101 6.44756 12.1684 6.42098 12.4914 6.6607L12.584 6.7406L16.984 11.1423C17.3061 11.4645 17.306 11.9869 16.9838 12.309C16.6907 12.6018 16.2325 12.6284 15.9095 12.3887L15.817 12.3088L12.8242 9.31466L12.8246 16.6756C12.8246 17.0932 12.5143 17.4384 12.1116 17.493L11.9996 17.5005C11.5819 17.5005 11.2367 17.1901 11.1822 16.7875L11.1746 16.6756L11.1742 9.31686L8.18295 12.3081C7.89005 12.601 7.43173 12.6277 7.10876 12.388L7.01622 12.3081Z" fill="#212121"/>
</svg>
