<svg width="32" height="32" viewBox="0 0 32 32" fill="none" xmlns="http://www.w3.org/2000/svg">
<path d="M24.6673 26.6666C24.6673 27.0333 24.3687 27.3333 24.0007 27.3333H16.3577C15.9748 28.068 15.4897 28.7409 14.9212 29.3333H24.0007C25.4726 29.3333 26.6673 28.1386 26.6673 26.6666V13.104C26.6673 12.3973 26.386 11.7186 25.886 11.2186L18.114 3.44796C18.094 3.42803 18.0714 3.41073 18.049 3.39356C18.0324 3.38085 18.016 3.36823 18.0007 3.35463C17.906 3.26929 17.8127 3.18529 17.7087 3.11463C17.6749 3.09188 17.6381 3.07393 17.6013 3.05605C17.58 3.04564 17.5586 3.03525 17.538 3.02396C17.5157 3.01141 17.4936 2.99859 17.4713 2.98573C17.399 2.94392 17.3265 2.90193 17.25 2.86929C16.9873 2.75996 16.7046 2.70529 16.418 2.68529C16.3917 2.68361 16.3657 2.68007 16.3396 2.67651C16.3035 2.67157 16.2672 2.66663 16.23 2.66663H8.00065C6.52865 2.66663 5.33398 3.86129 5.33398 5.33329V15.3309C5.96621 15.0672 6.63637 14.8762 7.33398 14.7685V5.33329C7.33398 4.96663 7.63265 4.66663 8.00065 4.66663H16.0007V10.6666C16.0007 12.1386 17.1953 13.3333 18.6673 13.3333H24.6673V26.6666ZM18.0007 6.16129L23.1713 11.3333H18.6673C18.2993 11.3333 18.0007 11.0333 18.0007 10.6666V6.16129ZM16.0007 23.3333C16.0007 19.2832 12.7174 16 8.66732 16C4.61722 16 1.33398 19.2832 1.33398 23.3333C1.33398 27.3834 4.61722 30.6666 8.66732 30.6666C12.7174 30.6666 16.0007 27.3834 16.0007 23.3333ZM9.33485 24L9.33546 27.338C9.33546 27.7062 9.03698 28.0046 8.6688 28.0046C8.30061 28.0046 8.00213 27.7062 8.00213 27.338L8.00152 24H4.66145C4.29362 24 3.99544 23.7016 3.99544 23.3333C3.99544 22.9652 4.29362 22.6666 4.66145 22.6666H8.00126L8.00065 19.3324C8.00065 18.9641 8.29913 18.6657 8.66732 18.6657C9.0355 18.6657 9.33398 18.9641 9.33398 19.3324L9.3346 22.6666H12.6628C13.0306 22.6666 13.3288 22.9652 13.3288 23.3333C13.3288 23.7016 13.0306 24 12.6628 24H9.33485Z" fill="#555555"/>
</svg>
