<svg width="28" height="28" viewBox="0 0 28 28" fill="none" xmlns="http://www.w3.org/2000/svg">
<path d="M24.578 9.40603C25.359 8.62498 25.359 7.35866 24.578 6.57761L20.8534 2.85305C20.0724 2.072 18.806 2.072 18.025 2.85305L5.78715 15.0909L12.3401 21.6439L24.578 9.40603Z" fill="#FFE267"/>
<path d="M4.88685 23.1308C4.53738 23.2003 4.22945 22.8923 4.29894 22.5429L5.7833 15.0775L12.3522 21.6464L4.88685 23.1308Z" fill="#FFB682"/>
<path d="M4.88557 23.1325C4.53675 23.2012 4.2297 22.8941 4.29839 22.5453L5.15432 18.1987L9.23222 22.2766L4.88557 23.1325Z" fill="black"/>
<path d="M24.578 9.40603C25.359 8.62499 25.359 7.35866 24.578 6.57761L20.8534 2.85305C20.0724 2.072 18.806 2.072 18.025 2.85305L17.039 3.83903L23.592 10.392L24.578 9.40603Z" fill="#00BCF8"/>
</svg>
